<svg width="92" height="63" viewBox="0 0 92 63" fill="none" xmlns="http://www.w3.org/2000/svg">
<g clip-path="url(#clip0_7170_186861)">
<path d="M60.2483 41.2298L41.3516 8.38886L54.927 0.591309L78.425 41.2298H60.2483Z" fill="#3D4146"/>
<path d="M9.91406 36.6285L23.4895 28.7783L30.6724 41.2298H12.5484L9.91406 36.6285Z" fill="#3D4146"/>
<path d="M36.5586 62.1815H40.4222V46.5513H36.5586V62.1815Z" fill="#3D4146"/>
<path d="M84.974 62.5501C80.6537 62.5501 78.0546 60.3197 77.9141 57.1761H81.9885C81.9885 58.1596 82.6031 59.5997 85.2374 59.6524C86.9936 59.6524 87.8191 58.6162 87.8191 57.8435C87.7137 56.6142 86.1682 56.5088 84.5174 56.2453C82.8666 55.9819 81.4616 55.6834 80.443 55.1565C79.1434 54.4891 78.2653 53.0491 78.2653 51.3982C78.2653 48.6059 80.6889 46.3931 84.7281 46.3931C88.6445 46.3931 91.1207 48.4478 91.3842 51.5036H87.4502C87.4151 50.6782 87.2571 49.3786 84.9389 49.3786C83.3759 49.3786 82.3397 49.6947 82.2519 50.7836C82.2519 52.3817 85.5009 52.2763 88.0298 52.9437C90.4533 53.5584 91.9988 55.0687 91.9988 57.1761C91.9988 61.0574 88.8552 62.5501 84.974 62.5501Z" fill="#3D4146"/>
<path d="M25.8242 22.6847L39.3997 14.8521L54.6259 41.2302H40.4183V45.0938H36.5546V41.2126L25.8242 22.6847Z" fill="#3D4146"/>
<path fill-rule="evenodd" clip-rule="evenodd" d="M26.1761 62.5503C21.6802 62.5503 18.0273 58.8798 18.0273 54.4366C18.0273 49.9407 21.6802 46.3932 26.1761 46.3932C27.8796 46.3932 29.4251 46.8498 30.7774 47.7806V41.23H34.641V62.1815H30.7774V61.1453C29.4251 62.0234 27.8796 62.5503 26.1761 62.5503ZM21.7329 54.4366C21.7329 56.8602 23.8053 58.8798 26.2815 58.8798C28.7051 58.8798 30.7774 56.8602 30.7774 54.4366C30.7774 52.0131 28.7051 49.9407 26.2815 49.9407C23.8053 49.9407 21.7329 52.0131 21.7329 54.4366Z" fill="#3D4146"/>
<path fill-rule="evenodd" clip-rule="evenodd" d="M54.7344 41.23H58.5454V62.1815H54.7344V61.1453C53.4348 62.0234 51.8367 62.5503 50.0805 62.5503C45.6373 62.5503 41.9844 58.8798 41.9844 54.4366C41.9844 49.9407 45.6373 46.3932 50.0805 46.3932C51.8367 46.3932 53.3821 46.8498 54.7344 47.7806V41.23ZM45.7426 54.4366C45.7426 56.8602 47.815 58.8798 50.1858 58.8798C52.6621 58.8798 54.7344 56.8602 54.7344 54.4366C54.7344 52.0131 52.6621 49.9407 50.1858 49.9407C47.815 49.9407 45.7426 52.0131 45.7426 54.4366Z" fill="#3D4146"/>
<path fill-rule="evenodd" clip-rule="evenodd" d="M67.9398 62.5496C63.5142 62.5496 59.8438 58.8792 59.8438 54.436C59.8438 49.9401 63.5142 46.3926 67.9398 46.3926C69.6434 46.3926 71.2415 46.8492 72.5411 47.78V46.5331H76.4047V62.1808H72.5411V61.1447C71.2415 62.0228 69.6961 62.5496 67.9398 62.5496ZM63.602 54.436C63.602 56.8595 65.6743 58.8792 68.0979 58.8792C70.5215 58.8792 72.5411 56.8595 72.5411 54.436C72.5411 52.0124 70.5215 49.9401 68.0979 49.9401C65.6743 49.9401 63.602 52.0124 63.602 54.436Z" fill="#3D4146"/>
<path fill-rule="evenodd" clip-rule="evenodd" d="M3.8208 54.4365C3.8208 56.86 5.89312 58.8796 8.31668 58.8796C10.7929 58.8796 12.8652 56.86 12.8652 54.4365C12.8652 52.0129 10.7929 49.9406 8.31668 49.9406C5.89312 49.9406 3.8208 52.0129 3.8208 54.4365ZM8.21131 62.5501C3.76812 62.5501 0.0976562 58.8796 0.0976562 54.4365C0.0976562 49.9406 3.76812 46.3931 8.21131 46.3931C9.91483 46.3931 11.513 46.8497 12.8652 47.7805V46.5336H16.6762V62.1813H12.8652V61.1452C11.5657 62.0233 9.96751 62.5501 8.21131 62.5501Z" fill="#3D4146"/>
</g>
<defs>
<clipPath id="clip0_7170_186861">
<rect width="91.9021" height="61.9588" fill="white" transform="translate(0.0976562 0.591797)"/>
</clipPath>
</defs>
</svg>
