<svg width="92" height="62" viewBox="0 0 92 62" fill="none" xmlns="http://www.w3.org/2000/svg">
<g clip-path="url(#clip0_7505_230010)">
<path d="M42.7465 44.9608L40.8379 49.3652C44.4348 48.9981 47.8115 48.7779 50.8211 48.7779L48.7657 44.1534C46.7838 44.447 44.7284 44.7406 42.7465 44.9608ZM60.8777 43.4193C60.1436 45.3279 59.3361 47.2364 58.6755 48.9981C66.0894 49.5854 70.4938 50.7599 70.4938 50.7599L73.9438 43.4927C69.2459 43.3459 64.915 43.3459 60.8777 43.4193ZM17.0545 53.6227C15.513 54.7238 15.0726 55.2376 14.9992 55.2376C14.9258 55.311 18.3758 53.9897 23.661 52.595C28.6526 51.2737 31.1484 50.8333 33.8644 50.3928C33.424 49.3652 33.057 48.2641 32.5431 47.0896C24.0281 49.3652 19.3301 52.0078 17.0545 53.6227Z" fill="#3D4146"/>
<path d="M46.0513 12.0019L55.0068 35.2714L71.6699 2.60596L55.1536 24.2606L46.0513 3.48683L36.8756 24.2606L20.3594 2.60596L36.949 35.2714" fill="#3D4146"/>
<path d="M60.8789 43.4194C62.6407 38.9417 64.329 34.5374 65.2099 32.2618C68.2929 24.2606 76.0739 2.60596 76.0739 2.60596L54.8597 45.9886C52.5107 40.0428 46.1244 24.2606 46.1244 24.2606C45.684 25.3617 39.7381 40.0428 37.3892 45.9886L16.1016 2.60596C16.1016 2.60596 23.8091 24.2606 26.9656 32.2618C28.1401 35.198 30.5625 41.4375 32.7646 47.0897L34.0859 50.393C35.8477 54.8707 37.1689 58.3942 37.1689 58.3942L41.1328 49.5121L43.0414 45.1078L46.2712 37.7672L49.1341 44.3003L51.1894 48.8514L55.3001 58.3942C55.3001 58.3942 56.915 54.21 58.897 49.1451C59.3374 47.3099 60.1449 45.4014 60.8789 43.4194Z" fill="#3D4146"/>
<path d="M60.0711 52.0812C59.6307 52.0812 59.2637 51.7142 59.2637 51.2738C59.2637 50.8333 59.6307 50.4663 60.0711 50.4663C60.5116 50.4663 60.8786 50.8333 60.8786 51.2738C60.8786 51.7142 60.5116 52.0812 60.0711 52.0812ZM60.0711 50.5397C59.7041 50.5397 59.4105 50.8333 59.4105 51.2738C59.4105 51.6408 59.7041 52.0078 60.0711 52.0078C60.4382 52.0078 60.7318 51.7142 60.7318 51.2738C60.7318 50.8333 60.3648 50.5397 60.0711 50.5397ZM59.9243 51.7142H59.7775V50.8333H60.0711C60.2914 50.8333 60.3648 50.9067 60.3648 51.127C60.3648 51.3472 60.2914 51.3472 60.1445 51.4206L60.4382 51.7876H60.2914L60.0711 51.4206H59.9243V51.7142ZM60.0711 51.127C60.1445 51.127 60.2914 51.1269 60.2914 50.9801C60.2914 50.9067 60.218 50.9067 60.1445 50.9067H59.9977V51.2004H60.0711V51.127Z" fill="#3D4146"/>
</g>
<defs>
<clipPath id="clip0_7505_230010">
<rect width="61" height="61" fill="white" transform="translate(15)"/>
</clipPath>
</defs>
</svg>
