<svg width="174" height="41" viewBox="0 0 174 41" fill="none" xmlns="http://www.w3.org/2000/svg">
<g clip-path="url(#clip0_7170_186826)">
<mask id="mask0_7170_186826" style="mask-type:luminance" maskUnits="userSpaceOnUse" x="-1" y="0" width="176" height="41">
<path d="M174.083 0.604004H-0.332031V40.4704H174.083V0.604004Z" fill="white"/>
</mask>
<g mask="url(#mask0_7170_186826)">
<path d="M91.5272 24.6899C87.1253 24.6899 83.6369 28.0952 83.6369 32.5801C83.6369 37.0651 87.2083 40.4704 91.5272 40.4704C95.9291 40.4704 99.4174 36.982 99.4174 32.5801C99.4174 28.0952 95.9291 24.6899 91.5272 24.6899ZM91.5272 27.846C94.1849 27.846 96.1782 29.8393 96.1782 32.5801C96.1782 35.3209 94.1019 37.3143 91.5272 37.3143C88.8694 37.3143 86.8761 35.3209 86.8761 32.5801C86.793 29.8393 88.8694 27.846 91.5272 27.846ZM157.224 35.404V28.1782H160.961V25.0221H157.224V20.7863L153.984 21.783V25.0221H151.244V28.1782H153.984V35.404C153.984 39.3076 155.978 40.7195 160.961 40.0551V37.1482C158.469 37.3143 157.224 37.3143 157.224 35.404ZM174.001 37.0651H166.609L174.001 28.1782V25.1883H162.539V28.1782H169.931L162.539 37.0651V40.1381H174.001V37.0651ZM108.553 24.856V28.3443C106.394 28.1782 103.902 29.1749 103.902 32.5801V40.1381H100.663V25.1052H103.902V27.5968C104.816 25.6035 106.643 24.856 108.553 24.856ZM116.361 24.6899C111.959 24.6899 108.47 28.0952 108.47 32.5801C108.47 37.0651 112.042 40.4704 116.361 40.4704C120.762 40.4704 124.251 36.982 124.251 32.5801C124.334 28.0952 120.846 24.6899 116.361 24.6899ZM116.361 27.846C119.018 27.846 121.012 29.8393 121.012 32.5801C121.012 35.3209 118.935 37.3143 116.361 37.3143C113.703 37.3143 111.71 35.3209 111.71 32.5801C111.71 29.8393 113.786 27.846 116.361 27.846ZM145.679 25.1052L140.945 40.1381H137.789L134.633 30.0054L131.477 40.1381H128.32L123.586 25.1052H126.992L129.899 35.4871L133.055 25.1052H136.128L139.284 35.4871L142.191 25.1052H145.679ZM149.998 25.1052H146.759V40.1381H149.998V25.1052ZM44.6012 1.60066V7.82978C43.3553 6.91618 41.6112 6.16868 39.9501 6.16868C35.299 6.16868 31.5615 10.2384 32.0599 14.9725C32.4751 18.6269 35.4651 21.6169 39.1195 22.0322C41.1959 22.1983 43.1062 21.6169 44.6012 20.5372V21.6999H47.9234V0.604004L44.6012 1.60066ZM44.5181 14.142C44.5181 17.0489 41.8603 19.2914 38.8704 18.6269C37.1262 18.2947 35.7143 16.8828 35.299 15.0556C34.7176 12.0656 37.0432 9.40782 39.9501 9.40782C42.4417 9.40782 44.5181 11.4842 44.5181 14.142ZM12.542 6.66701V7.66367C11.2961 6.75007 9.63505 6.16868 7.97395 6.16868C3.32287 6.16868 -0.414596 10.2384 0.0837335 14.9725C0.499008 18.6269 3.48898 21.6169 7.1434 22.0322C9.21977 22.1983 11.13 21.6169 12.625 20.5372V21.6999H15.9472V6.66701H12.542ZM12.542 14.142C12.542 17.0489 9.88421 19.2914 6.89423 18.6269C5.15008 18.2947 3.73815 16.8828 3.32287 15.0556C2.74149 12.0656 5.06703 9.40782 7.97395 9.40782C10.4656 9.40782 12.542 11.4842 12.542 14.142ZM25.0833 6.25174C23.0069 6.25174 21.4288 6.99923 20.4322 8.57727V6.58396H17.193V21.6169H20.4322V13.5606C20.4322 10.4875 22.0933 9.24171 24.2527 9.24171C26.3291 9.24171 27.5749 10.4045 27.5749 12.73V21.6169H30.814V12.4809C30.8971 8.57727 28.4885 6.25174 25.0833 6.25174ZM85.4642 17.215C84.7167 18.2947 83.3878 19.0422 81.5606 19.0422C79.152 19.0422 77.2417 17.8794 76.7434 15.4708H88.7033C88.7864 15.0556 88.7864 14.5572 88.7864 14.142C88.7864 9.8231 85.7133 6.25174 81.2284 6.25174C76.4942 6.25174 73.3381 9.74004 73.3381 14.142C73.3381 18.6269 76.5773 22.0322 81.4775 22.0322C84.3844 22.0322 86.71 20.7863 88.0389 18.793L85.4642 17.215ZM81.3114 9.24171C83.3047 9.24171 85.1319 10.3214 85.6303 12.8961H76.7434C77.2417 10.6536 78.9028 9.24171 81.3114 9.24171ZM122.59 19.1252C124.417 19.1252 125.746 18.2947 126.493 17.298L129.151 18.8761C127.739 20.9525 125.497 22.1152 122.59 22.1152C117.606 22.1152 114.45 18.71 114.45 14.225C114.45 9.74004 117.689 6.33479 122.341 6.33479C126.825 6.33479 129.899 9.90615 129.899 14.225C129.899 14.3911 129.899 14.6403 129.815 14.8894C129.815 15.1386 129.732 15.3047 129.732 15.5539H117.773C118.271 17.8794 120.181 19.1252 122.59 19.1252ZM126.576 12.8961C126.161 10.3214 124.251 9.24171 122.257 9.24171C119.849 9.24171 118.188 10.6536 117.689 12.8961H126.576ZM149.998 21.6999H146.759V18.793H149.998V21.6999ZM131.477 21.6999H134.716V13.6436C134.716 10.5706 136.377 9.32477 138.536 9.32477C140.53 9.32477 141.858 10.5706 141.858 12.8131V21.6169H145.098V12.3978C145.098 8.49422 142.689 6.25174 139.367 6.25174C137.29 6.25174 135.712 6.99923 134.716 8.57727V6.66701H131.477V21.6999ZM93.1052 10.8198C93.1052 9.74004 94.1019 9.24171 95.2646 9.24171C96.4274 9.24171 97.4241 9.74004 98.0054 10.7367L100.829 9.32477C99.7496 7.41451 97.7563 6.25174 95.2646 6.25174C92.1916 6.25174 89.783 7.99589 89.783 10.8198C89.783 13.9758 92.4408 14.7233 94.7663 15.3878H94.8494C94.9324 15.3878 95.0155 15.4708 95.0985 15.4708C96.6766 15.9692 97.8393 16.3014 97.8393 17.3811C97.8393 18.5439 96.7596 19.0422 95.2646 19.0422C93.8527 19.0422 92.6899 18.4608 92.1086 17.3811L89.2016 18.793C90.1983 20.7863 92.3577 22.0322 95.1816 22.0322C98.4207 22.0322 101.078 20.3711 101.078 17.3811C101.078 14.142 98.2546 13.3114 96.0121 12.73C94.5171 12.3147 93.1052 11.8995 93.1052 10.8198ZM105.646 10.8198C105.646 9.74004 106.643 9.24171 107.806 9.24171C108.969 9.24171 109.965 9.74004 110.63 10.8198L113.454 9.40782C112.374 7.49756 110.298 6.33479 107.889 6.33479C104.816 6.33479 102.407 8.07894 102.407 10.9028C102.407 14.0589 105.065 14.8064 107.391 15.4708H107.64C109.135 15.9692 110.464 16.3844 110.464 17.4641C110.464 18.6269 109.301 19.1252 107.889 19.1252C106.394 19.1252 105.314 18.5439 104.733 17.4641L101.826 18.8761C102.823 20.8694 104.899 22.1152 107.806 22.1152C111.128 22.1152 113.703 20.4541 113.703 17.4641C113.703 14.225 111.045 13.4775 108.72 12.8131H108.636C108.47 12.8131 108.387 12.73 108.221 12.73C106.809 12.2317 105.646 11.8995 105.646 10.8198ZM57.1424 9.90615V6.41785C55.2322 6.41785 53.405 7.16534 52.4914 9.15866V6.66701H49.2522V21.6999H52.4914V14.142C52.4914 10.7367 54.983 9.74004 57.1424 9.90615ZM72.0093 18.793V27.0155C73.0059 25.4374 74.584 24.6899 76.6603 24.6899C79.9825 24.6899 82.3911 26.9324 82.3911 30.836V40.1381H79.152V31.2513C79.152 29.0088 77.8231 27.763 75.8298 27.763C73.6704 27.763 72.0093 29.0088 72.0093 32.0818V40.1381H68.7701V21.4508C67.7735 21.8661 66.6938 22.1152 65.4479 22.1152C60.4646 22.1152 57.3085 18.71 57.3085 14.225C57.3085 9.74004 60.5477 6.33479 65.1988 6.33479C69.6837 6.33479 72.7568 9.90615 72.7568 14.225C72.7568 14.3911 72.7568 14.6403 72.6737 14.8894C72.6737 15.1386 72.5907 15.3047 72.5907 15.5539H60.6307C61.1291 17.8794 63.0393 19.1252 65.4479 19.1252C66.8599 19.1252 67.9396 18.6269 68.7701 17.9625C69.0193 17.7964 69.1854 17.5472 69.3515 17.298L72.0093 18.793ZM69.4346 12.8961C68.9362 10.3214 67.109 9.24171 65.1157 9.24171C62.7071 9.24171 61.046 10.6536 60.6307 12.8961H69.4346Z" fill="#3D4146"/>
</g>
</g>
<defs>
<clipPath id="clip0_7170_186826">
<rect width="174" height="39.8663" fill="white" transform="translate(0 0.60376)"/>
</clipPath>
</defs>
</svg>
