<svg width="115" height="70" viewBox="0 0 115 70" fill="none" xmlns="http://www.w3.org/2000/svg">
<path fill-rule="evenodd" clip-rule="evenodd" d="M61.9508 26.4485C61.9423 26.4412 61.937 26.4365 61.933 26.4329C61.9403 26.4395 61.9508 26.4485 61.9508 26.4485ZM95.3197 23.4857C95.3361 23.4801 95.3434 23.4776 95.3197 23.4857V23.4857ZM35.8921 9.22412L38.6941 8.97042C39.2247 8.92229 39.5817 8.54598 39.5817 8.03411V6.75026C39.5817 6.3382 39.3068 5.94734 38.6941 6.00291L35.8921 6.2565C35.2794 6.31196 35.0052 6.75255 35.0052 7.16461V8.44846C35.0052 8.96045 35.3616 9.27213 35.8921 9.22412ZM88.2474 20.2039C89.2304 20.9585 90.4398 21.2786 91.8427 21.1517C93.7859 20.9758 95.2578 20.6538 96.3513 20.1686C96.7295 19.9965 96.9471 19.6786 96.9471 19.2958V18.1921C96.9482 17.4703 96.3462 17.3014 95.9201 17.4467C94.8894 17.7878 93.5567 18.0288 91.8427 18.1838C91.3743 18.2262 90.973 18.0988 90.6495 17.801C90.3249 17.5017 90.1596 17.1242 90.1596 16.6748V11.3351C90.1596 10.8877 90.3249 10.4784 90.649 10.1224C90.9743 9.76624 91.3754 9.56571 91.8428 9.52342C93.5547 9.3685 94.9255 9.36838 95.9137 9.52182C96.4001 9.59985 96.9472 9.30754 96.9472 8.59147V7.48741C96.9472 7.12451 96.7529 6.85007 96.3763 6.71978C95.2901 6.43216 93.8068 6.37796 91.8428 6.5558C90.4412 6.68265 89.2209 7.23142 88.2181 8.18525C87.2317 9.11973 86.7096 10.3184 86.7096 11.6473V16.987C86.7095 18.3378 87.2264 19.4188 88.2474 20.2039ZM43.0579 25.5678L44.7335 25.4162C45.264 25.3681 45.6211 24.9913 45.6211 24.4798V15.3424C45.6211 14.9146 45.7898 14.501 46.1114 14.1279C46.4345 13.7737 46.8357 13.5732 47.3047 13.5307L49.5576 13.3269C50.0089 13.2861 50.3962 13.4186 50.7211 13.735C51.0472 14.0341 51.2109 14.4054 51.2109 14.8364V23.9738C51.2109 24.4854 51.569 24.7974 52.0997 24.7494L53.8034 24.5952C53.8877 24.5875 53.9694 24.561 54.0467 24.5201C54.5544 24.2492 54.6617 23.9044 54.6617 23.6615V14.5241C54.6617 14.0946 54.8302 13.6812 55.1526 13.3095C55.4757 12.9552 55.8769 12.7548 56.3454 12.7124L58.5977 12.5086C59.0533 12.4673 59.444 12.5998 59.7909 12.9141C60.1171 13.2132 60.2814 13.5843 60.2814 14.0154V23.1528C60.2814 23.6644 60.6387 23.9765 61.1694 23.9285L62.8438 23.777C63.3743 23.7289 63.7313 23.3521 63.7313 22.8406V13.7032C63.7313 12.3426 63.2116 11.2685 62.194 10.5151C61.2096 9.75695 59.9987 9.43863 58.5975 9.56548L56.3453 9.76933C55.0173 9.88953 53.8742 10.3669 52.9365 11.1905C52.0032 10.5363 50.8687 10.265 49.5576 10.3838L47.3047 10.5877C45.916 10.7133 44.6987 11.2496 43.6795 12.1909C42.693 13.1259 42.171 14.3239 42.171 15.6547V24.7921C42.1709 25.3038 42.5275 25.6158 43.0579 25.5678ZM61.9904 26.4823C62.1452 26.628 62.3034 26.8198 62.4654 27.058C62.6273 27.2965 62.7947 27.545 62.9674 27.804L69.1312 36.6151V27.2093C69.1312 26.5982 69.2626 26.1288 69.5252 25.8013C69.5322 25.7928 69.5399 25.7854 69.5468 25.777L61.9508 26.4485C61.9638 26.4601 61.9777 26.4704 61.9904 26.4823ZM38.1456 11.4168L36.4414 11.5711C35.8285 11.6266 35.5538 12.0687 35.5538 12.4812V25.3912C35.5538 25.9027 35.9108 26.2149 36.4414 26.1669L38.1456 26.0126C38.6756 25.9646 39.0326 25.5878 39.0326 25.0762V12.1662C39.0326 11.7538 38.7583 11.3612 38.1456 11.4168ZM65.4524 10.0424C65.6515 9.93331 65.8162 9.78468 65.949 9.61601L69.3378 13.1059L67.3166 13.7894C67.2522 13.5935 67.1362 13.417 66.9654 13.2856C66.4653 12.9008 65.714 13.0234 65.2831 13.5605C64.8536 14.0975 64.9086 14.8447 65.408 15.2297C65.9066 15.6142 66.6604 15.4899 67.0888 14.9534C67.2073 14.8064 67.2855 14.6439 67.3305 14.4757L69.3585 15.4197C69.3582 15.4599 69.3524 15.4992 69.3524 15.5393C69.3524 19.878 72.872 23.0769 77.2136 22.6838C81.5557 22.2908 85.0758 18.4547 85.0758 14.116C85.0758 9.77735 81.5556 6.57883 77.2136 6.97187C75.5865 7.11923 74.0742 7.75039 72.8203 8.71076L71.1075 7.52476C71.2339 7.3271 71.3156 7.09987 71.3277 6.85694C71.3611 6.15531 70.8211 5.60884 70.12 5.63691C69.4209 5.66762 68.8256 6.262 68.7915 6.96511C68.7585 7.66663 69.2983 8.2131 69.9984 8.1825C70.1897 8.17517 70.3717 8.122 70.5385 8.03881L70.913 10.3888L66.2816 8.81778C66.3123 8.55996 66.2782 8.29709 66.164 8.0584C65.8299 7.36205 64.9696 7.12141 64.2423 7.52018C63.5155 7.91895 63.1969 8.80816 63.5313 9.5044C63.8644 10.2008 64.7268 10.4423 65.4524 10.0424ZM78.9588 17.5053C79.5353 17.4532 80.0008 17.8793 80.0008 18.4528C80.0008 19.0286 79.5353 19.5373 78.9588 19.5896C78.3823 19.6417 77.9166 19.2172 77.9166 18.6415C77.9168 18.068 78.3823 17.5576 78.9588 17.5053ZM75.333 17.8336C75.91 17.7814 76.3762 18.2074 76.3762 18.7808C76.3762 19.3565 75.9101 19.8654 75.333 19.9177C74.7566 19.9699 74.2911 19.5452 74.2911 18.9697C74.2911 18.3961 74.7565 17.8857 75.333 17.8336ZM83.3117 24.5568C83.2849 24.5559 83.2731 24.5554 83.2694 24.5553C83.2753 24.5555 83.2945 24.5562 83.3117 24.5568ZM80.9299 27.2064L78.814 27.3809V38.1138L81.2428 37.9134C81.7752 37.8694 82.1927 37.8205 82.495 37.7669C82.7972 37.7132 83.1103 37.6154 83.4341 37.4736C83.7579 37.3319 84.0385 37.147 84.2762 36.9187C85.3484 35.9241 85.8846 34.3195 85.8846 32.1046C85.8846 30.5443 85.6486 29.3951 85.1776 28.6573C84.706 27.9196 84.1249 27.4733 83.4341 27.318C82.7435 27.163 81.9083 27.1256 80.9299 27.2064ZM46.6674 37.1312L51.3954 36.741L49.0097 30.412L46.6674 37.1312ZM103.444 26.2691C103.29 26.2691 103.285 26.3786 103.285 26.3786C103.285 26.392 103.286 26.4054 103.286 26.419C103.286 26.8002 103.151 27.1546 102.881 27.4825C102.611 27.8105 102.275 27.991 101.872 28.0242C101.505 28.0545 101.226 27.9858 101.035 27.8181C100.844 27.6506 100.637 27.3674 100.414 26.9686C100.126 26.3957 99.781 25.9585 99.378 25.6573C98.9748 25.3563 98.3272 25.2424 97.4349 25.316C96.6072 25.3845 95.9398 25.6212 95.4324 26.0259C94.925 26.4311 94.6713 26.8888 94.6713 27.3994C94.6713 27.7159 94.7577 27.982 94.9305 28.1978C95.1032 28.4138 95.3407 28.5919 95.6429 28.7323C95.9453 28.873 96.2511 28.9772 96.5606 29.045C96.8699 29.1129 97.3809 29.2075 98.0934 29.3284C98.9856 29.4635 99.7937 29.6268 100.517 29.8188C101.24 30.0109 101.855 30.2657 102.363 30.5833C102.87 30.9011 103.266 31.3232 103.55 31.8499C103.566 31.8795 103.58 31.911 103.595 31.9413V26.3787C103.595 26.3785 103.575 26.2691 103.444 26.2691ZM76.8419 25.0831C76.7779 25.1031 76.7157 25.1245 76.657 25.1483L76.8419 25.1319V25.0831ZM83.3379 24.5576C83.3304 24.5574 83.3266 24.5572 83.3204 24.557C83.3302 24.5574 83.3379 24.5576 83.3379 24.5576ZM101.073 38.445C100.123 38.955 98.9966 39.2637 97.6942 39.371C96.1325 39.5 94.8444 39.3113 93.8296 38.8054C93.11 38.4405 92.5251 37.9225 92.0753 37.2513C91.6256 36.58 91.4007 35.91 91.4007 35.2413C91.4007 34.8528 91.5357 34.5093 91.8054 34.2101C92.0752 33.911 92.4189 33.7442 92.8363 33.7097C93.1746 33.6818 93.4606 33.766 93.6945 33.9625C93.9282 34.159 94.128 34.4625 94.2937 34.873C94.4949 35.3599 94.7127 35.7626 94.9466 36.0812C95.1805 36.4001 95.5096 36.6515 95.9343 36.8357C96.3588 37.02 96.9166 37.0836 97.6076 37.0267C98.5575 36.9482 99.3293 36.6634 99.9229 36.1722C100.517 35.6809 100.814 35.1047 100.814 34.4429C100.814 33.9182 100.653 33.5054 100.333 33.2045C100.013 32.9037 99.5992 32.6879 99.0918 32.5573C98.5844 32.4265 97.9061 32.2991 97.0571 32.175C95.9198 32.003 94.9682 31.7703 94.2018 31.4776C93.4354 31.1848 92.8272 30.7496 92.3775 30.1719C91.9275 29.5941 91.7027 28.8488 91.7027 27.9354C91.7027 27.0654 91.9401 26.2727 92.4153 25.5576C92.8902 24.8426 93.5774 24.2662 94.477 23.8288C94.729 23.7063 94.9948 23.5985 95.2717 23.5024L83.3377 24.5576C83.7746 24.5718 84.1782 24.6103 84.5459 24.6751C85.3231 24.8124 86.0284 25.1318 86.6616 25.6332C88.3095 26.9068 89.1335 28.9817 89.1335 31.858C89.1335 32.8072 89.0507 33.6807 88.8853 34.478C88.7197 35.2755 88.4643 36.0032 88.1189 36.6608C87.7733 37.3185 87.3308 37.9178 86.7911 38.4585C86.3663 38.8749 85.9022 39.2186 85.3986 39.4903C84.8947 39.7621 84.3532 39.9686 83.7738 40.1097C83.1945 40.251 82.5414 40.3516 81.8147 40.4116L77.637 40.7564C77.0541 40.8046 76.615 40.7528 76.3202 40.6008C76.025 40.4491 75.8325 40.2167 75.7425 39.9042C75.6525 39.5917 75.6076 39.1801 75.6076 38.6695V27.0738C75.6076 26.3834 75.7624 25.871 76.0719 25.5363C76.2218 25.3741 76.4174 25.2453 76.6566 25.1484L71.6445 25.5916C71.6556 25.6026 71.6677 25.6123 71.6785 25.6237C71.9446 25.9076 72.0778 26.3549 72.0778 26.966V39.403C72.0778 40.7909 71.5021 41.5323 70.3507 41.6273C70.0628 41.6511 69.8038 41.631 69.5735 41.5675C69.3431 41.5037 69.1272 41.3903 68.9259 41.2272C68.7242 41.0641 68.5372 40.8693 68.3646 40.6424C68.1918 40.4157 68.0191 40.1838 67.8465 39.9463L61.8338 31.2307V40.4964C61.8338 41.1004 61.6934 41.5687 61.4128 41.9009C61.1321 42.2332 60.7721 42.4177 60.3333 42.4539C59.8799 42.4913 59.5163 42.3649 59.243 42.0745C58.9694 41.7843 58.8328 41.3409 58.8328 40.744V28.5442C58.8328 28.0265 58.8903 27.6156 59.0055 27.311C59.1036 27.0706 59.249 26.8575 59.4399 26.6705L50.558 27.4559C50.6765 27.5537 50.7812 27.6644 50.8717 27.7881C51.0553 28.039 51.2099 28.3122 51.3358 28.6073C51.4618 28.9027 51.622 29.2974 51.8162 29.792L55.9507 39.6549C56.2746 40.4049 56.4365 40.9559 56.4365 41.3084C56.4365 41.6751 56.2834 42.0239 55.9777 42.3548C55.6719 42.6855 55.3031 42.8689 54.8712 42.9045C54.6193 42.9254 54.4034 42.8981 54.2237 42.8231C54.0437 42.748 53.8927 42.6385 53.7703 42.4938C53.6478 42.3493 53.5166 42.1229 53.3762 41.8143C53.2358 41.5062 53.1153 41.2337 53.0146 40.9974L52.259 39.0752L45.8254 39.6059L45.0697 41.6963C44.7745 42.5117 44.5226 43.0664 44.3141 43.3603C44.1052 43.6541 43.7635 43.8211 43.2885 43.8602C42.8854 43.8934 42.5292 43.7754 42.2198 43.5061C41.9103 43.2368 41.7558 42.9152 41.7558 42.5413C41.7558 42.3255 41.7916 42.0996 41.8636 41.8635C41.9354 41.6275 42.0543 41.2976 42.2198 40.8742L46.2679 30.2712C46.3828 29.967 46.5215 29.6014 46.6834 29.1745C46.8454 28.7477 47.018 28.3901 47.2016 28.1016C47.288 27.9658 47.3877 27.841 47.4995 27.7262L37.1145 28.6445C37.2026 28.6703 37.2891 28.698 37.373 28.7293C37.8695 28.8969 38.3083 29.159 38.6899 29.5158C39.0713 29.8727 39.3608 30.3002 39.5589 30.7979C39.7568 31.2957 39.8558 31.8322 39.8558 32.4075C39.8558 33.5868 39.5228 34.5564 38.8571 35.3161C38.1914 36.0758 37.1822 36.6587 35.8293 37.0653C36.3977 37.3204 36.9412 37.7215 37.4594 38.2682C37.9775 38.8152 38.4398 39.4045 38.8465 40.036C39.2529 40.6678 39.5697 41.2422 39.7964 41.7591C40.0232 42.2762 40.1364 42.6354 40.1364 42.8366C40.1364 43.0452 40.0698 43.2574 39.9367 43.4734C39.8034 43.6893 39.6218 43.8661 39.3916 44.0037C39.1611 44.1414 38.895 44.2227 38.5928 44.2477C38.2328 44.2774 37.9304 44.2177 37.686 44.069C37.4411 43.9202 37.2308 43.7235 37.0545 43.4793C36.8781 43.235 36.6389 42.8736 36.3366 42.3952L35.0521 40.3653C34.5914 39.6196 34.1795 39.0567 33.8161 38.6769C33.4527 38.2969 33.0837 38.047 32.7097 37.9268C32.3354 37.8066 31.8639 37.77 31.2955 37.8169L30.1729 37.9096V42.9901C30.1729 43.6588 30.0253 44.1637 29.7303 44.5044C29.4352 44.8452 29.0503 45.0352 28.5753 45.0744C28.0642 45.1165 27.6686 44.9837 27.3878 44.676C27.1072 44.3686 26.9669 43.8948 26.9669 43.2547V31.0874C26.9669 30.397 27.1215 29.8846 27.431 29.5498C27.4485 29.5308 27.4689 29.5139 27.4876 29.4958L21.1519 30.056C21.304 30.1109 21.4507 30.1739 21.5911 30.2474C21.9652 30.4394 22.2963 30.6945 22.5843 31.0121C22.872 31.3301 23.0915 31.6896 23.2427 32.0904C23.3938 32.4915 23.4694 32.9222 23.4694 33.3823C23.4694 34.9644 22.6776 36.1874 21.0946 37.0515C23.1743 37.5415 24.2143 38.743 24.2143 40.6557C24.2143 41.5402 23.9875 42.3554 23.5342 43.101C23.0808 43.8469 22.4691 44.4205 21.6992 44.8219C21.217 45.0631 20.6628 45.2509 20.0367 45.3851C19.4106 45.5196 18.6801 45.6212 17.8453 45.69L13.0092 46.089C12.311 46.1467 11.8127 46.0314 11.5142 45.7431C11.4854 45.7154 11.4584 45.6851 11.4324 45.6536V46.2798C11.4324 46.2798 11.4922 46.3952 11.6086 46.4257C15.5749 47.4647 85.1606 65.6947 85.1606 65.6947L103.595 36.6632V35.773C103.495 36.0134 103.377 36.248 103.237 36.476C102.744 37.2791 102.023 37.9352 101.073 38.445ZM103.621 35.7118C103.614 35.7275 103.607 35.7448 103.599 35.764C103.603 35.7534 103.611 35.7339 103.621 35.7118ZM109.767 6.20837C108.782 5.45036 107.572 5.13204 106.17 5.25877C104.415 5.41759 103.093 5.64746 102.219 5.95009C101.596 6.18809 101.529 6.65366 101.529 6.84227V7.99664C101.529 8.22055 101.588 8.40515 101.703 8.54518C101.851 8.72245 102.072 8.80701 102.326 8.78398C102.369 8.7802 102.471 8.76221 102.512 8.74983C103.189 8.54357 104.42 8.36035 106.17 8.20187C106.622 8.16108 107.009 8.29377 107.334 8.61003C107.661 8.909 107.825 9.28026 107.825 9.71135V10.4749L103.918 10.8285C102.514 10.9556 101.295 11.5026 100.292 12.4563C99.2919 13.4065 98.7843 14.5628 98.7843 15.8939C98.7843 17.2426 99.3014 18.3246 100.322 19.1109C101.306 19.8653 102.515 20.1853 103.918 20.0585L110.416 19.4703C110.922 19.4246 111.275 19.0397 111.275 18.5365V9.39898C111.275 8.07009 110.753 6.96603 109.767 6.20837ZM107.825 16.7369L103.918 17.0905C103.449 17.1329 103.048 17.0054 102.725 16.7076C102.399 16.4084 102.234 16.031 102.234 15.5815C102.234 15.1501 102.399 14.7489 102.725 14.3931C103.048 14.0388 103.449 13.8383 103.918 13.7959L107.825 13.4421V16.7369ZM30.1729 35.6121L33.0443 35.3753C33.8143 35.3117 34.4621 35.1919 34.9873 35.0153C35.5126 34.8389 35.9139 34.5794 36.191 34.2364C36.4679 33.8937 36.6065 33.4416 36.6065 32.8807C36.6065 32.4422 36.4948 32.0647 36.2719 31.7487C36.0488 31.4328 35.7393 31.2085 35.3435 31.0757C34.9692 30.9485 34.2316 30.9301 33.1305 31.021L30.1728 31.2649V35.6121H30.1729ZM20.123 39.0194C19.5617 38.7062 18.7232 38.5955 17.6079 38.6875L14.2723 38.9628V43.5793L17.7158 43.2952C19.8819 43.1165 20.9651 42.247 20.9651 40.6864C20.965 39.8883 20.6844 39.3327 20.123 39.0194ZM20.8141 27.5815L22.4896 27.4297C23.02 27.3817 23.3761 27.0051 23.3761 26.4934V17.356C23.3761 16.9284 23.5446 16.5148 23.867 16.1414C24.1901 15.7873 24.5912 15.5868 25.0597 15.5444L27.3132 15.3404C27.7644 15.2996 28.1512 15.4324 28.4766 15.7486C28.8025 16.0476 28.967 16.4188 28.967 16.8499V25.9873C28.967 26.4988 29.3239 26.811 29.8544 26.7631L31.5594 26.6086C32.0644 26.563 32.4177 26.178 32.4177 25.6749V16.5375C32.4177 15.1771 31.8974 14.1031 30.8802 13.3495C29.8959 12.5914 28.696 12.2722 27.3132 12.3973L25.0597 12.6013C23.6722 12.727 22.4542 13.2633 21.435 14.2046C20.4484 15.1395 19.9265 16.3376 19.9265 17.6684V26.8058C19.9266 27.3172 20.2835 27.6295 20.8141 27.5815ZM21.1519 30.056C21.1451 30.0536 21.1416 30.0523 21.1363 30.0504C21.145 30.0535 21.1519 30.056 21.1519 30.056ZM14.2722 36.6651L17.2084 36.423C18.0072 36.3571 18.6242 36.2306 19.0597 36.0436C19.4951 35.8567 19.8279 35.5417 20.0583 35.0984C20.238 34.7814 20.3281 34.436 20.3281 34.0621C20.3281 33.2639 20.0437 32.7572 19.4753 32.5414C18.9069 32.3259 18.0397 32.2662 16.8738 32.3623L14.2723 32.577V36.6651H14.2722ZM16.7615 27.0923V17.9549C16.7615 16.626 16.2398 15.5219 15.2526 14.7643C14.2676 14.0062 13.0569 13.6879 11.6562 13.8147C9.90111 13.9735 8.57887 14.2033 7.70433 14.506C7.0812 14.7441 7.01428 15.2095 7.01428 15.3982V16.5525C7.01428 16.7764 7.07363 16.961 7.18845 17.1011C7.3365 17.2783 7.558 17.3629 7.81216 17.3399C7.85398 17.3361 7.9562 17.3181 7.9971 17.3057C8.67513 17.0993 9.90547 16.9162 11.6562 16.7578C12.1067 16.717 12.4952 16.8497 12.8207 17.1659C13.1461 17.465 13.3105 17.8361 13.3105 18.2672V19.0309L9.40391 19.3844C8.00043 19.5114 6.78097 20.0585 5.77866 21.012C4.77727 21.9624 4.26953 23.1187 4.26953 24.4496C4.26953 25.7983 4.78713 26.8814 5.80789 27.6666C6.79129 28.4211 8.001 28.7411 9.40391 28.6141L15.9024 28.026C16.4084 27.9802 16.7615 27.5953 16.7615 27.0923ZM13.3104 25.2928L9.40379 25.6464C8.93524 25.6888 8.53361 25.5614 8.21104 25.2634C7.88446 24.9644 7.72014 24.5868 7.72014 24.1374C7.72014 23.706 7.88446 23.3048 8.21104 22.949C8.53361 22.5948 8.93524 22.3941 9.40379 22.3517L13.3104 21.9981V25.2928Z" fill="#3D4146"/>
</svg>
