<svg width="24" height="24" viewBox="0 0 24 24" fill="none" xmlns="http://www.w3.org/2000/svg">
<path d="M12.0008 6.06251C12.0238 5.34918 12.2203 4.29836 12.9041 3.60801C13.5388 2.9672 14.3116 2.65488 14.7928 2.51211C14.9786 2.45698 15.1569 2.59709 15.1478 2.79068C15.1155 3.47355 14.9359 4.49207 14.4727 5.03772C14.036 5.55209 13.3334 6.23417 12.3044 6.34894C12.136 6.36772 11.9953 6.23189 12.0008 6.06251Z" fill="#333333"/>
<path d="M13.7628 19.1187C14.2569 19.308 14.7565 19.4994 15.2087 19.4994C16.176 19.4994 18.9925 17.2677 19.094 14.9498C19.0992 14.8308 19.0281 14.7245 18.9241 14.6663C18.2077 14.2654 17.0377 13.2671 16.997 11.8149C16.9495 10.1224 17.7993 8.77815 18.4424 8.22209C18.5872 8.09694 18.6369 7.87628 18.5077 7.73516C17.9225 7.09614 16.7454 6.21716 15.6713 6.23874C14.8899 6.25444 14.1859 6.54551 13.5817 6.79528C13.1182 6.98691 12.7135 7.15422 12.3778 7.15422C12.0598 7.15422 11.6781 6.98798 11.2399 6.79718C10.6499 6.54023 9.95755 6.23874 9.18093 6.23874C7.74237 6.23874 4.90003 7.43164 4.90002 12.0368C4.90002 14.4781 7.42023 19.5641 9.54687 19.4994C10.0061 19.4994 10.4968 19.3092 10.9838 19.1206C11.4634 18.9347 11.9393 18.7504 12.3778 18.7504C12.8012 18.7504 13.2794 18.9335 13.7628 19.1187Z" fill="#333333"/>
</svg>
