<svg width="24" height="24" viewBox="0 0 24 24" fill="none" xmlns="http://www.w3.org/2000/svg">
<g clip-path="url(#clip0_7170_187124)">
<path d="M12 16.498C14.4853 16.498 16.5 14.4833 16.5 11.998C16.5 9.51277 14.4853 7.49805 12 7.49805C9.51472 7.49805 7.5 9.51277 7.5 11.998C7.5 14.4833 9.51472 16.498 12 16.498Z" fill="white"/>
<path d="M12.0005 7.50002H19.7935C19.0038 6.13178 17.8678 4.99558 16.4997 4.20564C15.1317 3.41571 13.5797 2.99989 11.9999 3C10.4202 3.00011 8.8683 3.41614 7.50032 4.20627C6.13235 4.9964 4.99652 6.13276 4.20703 7.5011L8.10351 14.25L8.10699 14.2491C7.71062 13.5656 7.50144 12.7897 7.50056 11.9995C7.49967 11.2094 7.7071 10.433 8.10193 9.74855C8.49677 9.06414 9.06506 8.49591 9.74952 8.10115C10.434 7.70639 11.2104 7.49904 12.0005 7.50002Z" fill="url(#paint0_linear_7170_187124)"/>
<path d="M12 15.5625C13.9675 15.5625 15.5625 13.9675 15.5625 12C15.5625 10.0325 13.9675 8.4375 12 8.4375C10.0325 8.4375 8.4375 10.0325 8.4375 12C8.4375 13.9675 10.0325 15.5625 12 15.5625Z" fill="#1A73E8"/>
<path d="M15.8981 14.2514L12.0016 21.0003C13.5814 21.0005 15.1333 20.5848 16.5015 19.795C17.8696 19.0051 19.0057 17.869 19.7955 16.5009C20.5852 15.1327 21.0009 13.5807 21.0006 12.0009C21.0003 10.4212 20.5841 8.86935 19.7938 7.50146H12.0009L12 7.50495C12.7901 7.50343 13.5667 7.71024 14.2514 8.10453C14.9362 8.49883 15.5049 9.06667 15.9002 9.75082C16.2955 10.435 16.5034 11.2112 16.503 12.0014C16.5027 12.7915 16.294 13.5676 15.8981 14.2514Z" fill="url(#paint1_linear_7170_187124)"/>
<path d="M8.10259 14.2509L4.20612 7.50195C3.41604 8.86995 3.00006 10.4219 3 12.0016C2.99994 13.5814 3.41581 15.1333 4.20578 16.5014C4.99576 17.8694 6.132 19.0054 7.50025 19.795C8.86851 20.5847 10.4205 21.0002 12.0003 20.9997L15.8968 14.2508L15.8943 14.2482C15.5005 14.9333 14.9331 15.5024 14.2493 15.8982C13.5654 16.2941 12.7893 16.5026 11.9992 16.5029C11.2091 16.5032 10.4328 16.2951 9.7487 15.8998C9.0646 15.5044 8.49682 14.9356 8.10259 14.2509Z" fill="url(#paint2_linear_7170_187124)"/>
</g>
<defs>
<linearGradient id="paint0_linear_7170_187124" x1="4.20703" y1="8.62502" x2="19.7935" y2="8.62502" gradientUnits="userSpaceOnUse">
<stop stop-color="#D93025"/>
<stop offset="1" stop-color="#EA4335"/>
</linearGradient>
<linearGradient id="paint1_linear_7170_187124" x1="10.7721" y1="20.88" x2="18.5653" y2="7.38169" gradientUnits="userSpaceOnUse">
<stop stop-color="#FCC934"/>
<stop offset="1" stop-color="#FBBC04"/>
</linearGradient>
<linearGradient id="paint2_linear_7170_187124" x1="12.9737" y1="20.4378" x2="5.18041" y2="6.93945" gradientUnits="userSpaceOnUse">
<stop stop-color="#1E8E3E"/>
<stop offset="1" stop-color="#34A853"/>
</linearGradient>
<clipPath id="clip0_7170_187124">
<rect width="18" height="18" fill="white" transform="translate(3 3)"/>
</clipPath>
</defs>
</svg>
