<svg width="103" height="56" viewBox="0 0 103 56" fill="none" xmlns="http://www.w3.org/2000/svg">
<path fill-rule="evenodd" clip-rule="evenodd" d="M8.30048 6.6389e-05H91.2367C92.3282 -0.00511977 93.4095 0.205067 94.4185 0.618455C95.4275 1.03184 96.3438 1.64018 97.1145 2.40824C97.8852 3.17628 98.4946 4.08875 98.9079 5.09271C99.3212 6.09668 99.5297 7.17217 99.5216 8.25686V45.0401C99.5259 47.2302 98.6561 49.3323 97.1029 50.8855C95.5498 52.4386 93.4401 53.316 91.2367 53.3248H8.30048C7.20696 53.3294 6.12345 53.1179 5.11274 52.703C4.10201 52.2881 3.18422 51.6779 2.41253 50.9078C1.64086 50.1376 1.03067 49.2229 0.617326 48.2169C0.203985 47.2105 -0.00428614 46.1327 0.0046014 45.0458V8.25686C-0.00964207 7.16959 0.19513 6.09047 0.606852 5.08304C1.01857 4.07561 1.62892 3.16024 2.40197 2.39083C3.17503 1.6214 4.09513 1.01352 5.10815 0.602924C6.12114 0.19233 7.20655 -0.0126169 8.30048 6.6389e-05ZM96.6041 8.2579C96.6121 7.55409 96.4791 6.85576 96.2126 6.20367C95.946 5.55159 95.5515 4.95883 95.0517 4.46013C94.5522 3.9614 93.9575 3.56668 93.3024 3.29907C92.6476 3.03146 91.9454 2.8963 91.2374 2.90151H68.0547L81.3538 24.9881L82.5837 25.1437L83.3216 26.1495V27.0941L84.1656 27.2663L84.9317 28.3164V29.2276L85.8037 29.3778L86.6757 30.328V32.4116C87.7317 33.3688 88.9264 34.1631 90.22 34.7674C90.9708 35.0589 91.294 35.9206 91.6136 36.7729C91.7938 37.2533 91.9729 37.7307 92.2267 38.1013C92.5815 38.6839 92.9904 39.1256 93.3357 39.4986C93.85 40.0543 94.2232 40.4574 94.0661 40.9462C93.4733 43.1187 91.2374 46.7748 89.1578 46.9471H80.9233V50.4586H91.2374C91.9459 50.4559 92.647 50.3141 93.3005 50.0416C93.954 49.7688 94.5468 49.3709 95.0453 48.8703C95.5437 48.3697 95.9382 47.7761 96.2056 47.1239C96.4729 46.4717 96.6084 45.7734 96.6041 45.0691V8.2579ZM39.9057 46.9691H35.9142C35.8806 37.0732 39.2683 31.5944 43.3156 30.5056C43.8748 30.4053 43.6007 27.7273 42.9021 26.8828C42.9021 26.8828 40.9453 26.9105 40.5318 26.8548C40.0231 26.7159 40.3751 26.1548 40.3751 26.1548L42.276 22.1542L42.0188 21.0429H35.0702L40.8002 17.0589C41.0684 6.55181 51.9077 5.72947 58.4485 10.0746C62.3279 12.6361 62.6299 17.6979 62.3279 21.1874C62.2776 21.4153 61.3162 21.2652 61.3162 21.2652C61.3162 21.2652 60.6621 25.0991 62.384 25.0991H70.009C73.1226 24.9768 76.119 27.066 76.119 27.066L76.8513 24.4211L60.1645 2.9068H8.30974C6.87439 2.90186 5.49476 3.45877 4.46927 4.45703C3.97162 4.95966 3.57905 5.55526 3.31424 6.2095C3.04942 6.86373 2.91759 7.5636 2.92638 8.26875V45.0577C2.91576 45.7604 3.04684 46.4585 3.31182 47.1101C3.5768 47.762 3.97035 48.3546 4.46927 48.8527C4.97314 49.3547 5.57172 49.7532 6.23077 50.0249C6.88978 50.2965 7.59628 50.4365 8.30974 50.4363H41.9573C41.1356 49.0304 40.1964 47.4302 39.9057 46.9691Z" fill="#3D4146"/>
<path d="M10.3986 39.1606C10.3987 38.4348 10.6156 37.7256 11.0219 37.1227C11.4282 36.5199 12.0056 36.0505 12.6807 35.7745C13.3558 35.4983 14.0982 35.4279 14.8138 35.5719C15.5293 35.7159 16.1856 36.068 16.6994 36.5833C17.2133 37.0987 17.5615 37.7544 17.6998 38.4668C17.8381 39.1791 17.7604 39.9165 17.4764 40.585C17.1924 41.2536 16.715 41.823 16.1048 42.2212C15.4946 42.6197 14.7791 42.8288 14.0491 42.8221C13.5666 42.8229 13.0889 42.7285 12.6434 42.5442C12.198 42.3601 11.7938 42.0898 11.4542 41.7493C11.1147 41.4086 10.8465 41.0045 10.6653 40.56C10.4841 40.1156 10.3935 39.64 10.3986 39.1606Z" fill="#3D4146"/>
<path d="M101.644 52.7246L100.871 54.0099L100.098 52.7246H99.6172V55.0893H100.104V53.6761L100.737 54.7276H101.005L101.638 53.6761V55.0893H102.125V52.7246H101.644Z" fill="#3D4146"/>
<path d="M99.3176 52.7246H97.4141V53.2086H98.1194V55.0893H98.612V53.2086H99.3176V52.7246Z" fill="#3D4146"/>
</svg>
