<svg width="168" height="51" viewBox="0 0 168 51" fill="none" xmlns="http://www.w3.org/2000/svg">
<path d="M85.8644 7.14203H88.3771V6.53292L87.7299 5.88574H84.6081L83.9609 6.53292V11.5582L84.6081 12.1673H87.7299L88.3771 11.5582V10.949H85.8644V9.69275H88.3771V8.43642H85.8644V7.14203Z" fill="#3D4146"/>
<path d="M87.9585 0.250977H84.418V3.79151H87.9585V0.250977Z" fill="#3D4146"/>
<path d="M81.0658 5.88474V8.39736H79.2004V5.88474H77.9441L77.2969 6.53191V11.5572L77.9441 12.1663H79.2004V9.65369H81.0658V12.1663H82.3221L82.9313 11.5572V6.49385L82.3221 5.84668H81.0658V5.88474Z" fill="#3D4146"/>
<path d="M71.2448 5.88574L70.5977 6.53292V7.14203H72.4631V11.5201L73.1103 12.1292H73.7194L74.3285 11.5201V7.14203H76.194V6.53292L75.5848 5.88574H71.2448Z" fill="#3D4146"/>
<path d="M2.98528 14.2988L0.472656 16.8114V26.862L2.98528 29.3746H13.0358V34.3999H8.01054V31.8872H0.472656V36.9125L2.98528 39.4251H18.023L20.5356 36.9125V26.862L18.023 24.3493H8.01054V19.3241H13.0358V21.8367H20.5737V16.8114L18.061 14.2988H2.98528Z" fill="#3D4146"/>
<path d="M70.7109 14.2988V39.387H88.2613L90.7739 36.8744V16.8114L88.2613 14.2988H70.7109ZM78.2488 19.3241H83.2741V34.3617H78.2488V19.3241Z" fill="#3D4146"/>
<path d="M93.2891 14.2993V39.3875H110.839L113.352 36.8749V29.337L110.839 26.8244L113.352 24.3117V16.7738L110.839 14.2612L93.2891 14.2993ZM100.827 29.375H105.852V34.4003H100.827V29.375ZM100.827 24.3498V19.3245H105.852V24.3498H100.827Z" fill="#3D4146"/>
<path d="M118.376 14.2988L115.863 16.8114V36.8744L118.376 39.387H133.414L135.926 36.8744V16.8114L133.414 14.2988H118.376ZM123.401 19.3241H128.426V34.3617H123.401V19.3241Z" fill="#3D4146"/>
<path d="M163.261 22.1064L158.523 26.8442L163.261 31.5821L167.999 26.8443L163.261 22.1064Z" fill="#3D4146"/>
<path d="M32.7886 40.7822L28.0508 45.52L32.7886 50.2579L37.5264 45.52L32.7886 40.7822Z" fill="#3D4146"/>
<path d="M151.001 14.2988V21.8367L148.488 24.3493L145.975 21.8367V14.2988H140.95L138.438 16.8114V24.3493L140.95 26.862L138.438 29.3746V36.9125L140.95 39.4251H145.975V31.8872L148.488 29.3746L151.001 31.8872V39.4251H156.026L158.539 36.9125V29.3746L156.026 26.862L158.539 24.3493V16.8114L156.026 14.2988H151.001Z" fill="#3D4146"/>
<path d="M60.6617 14.2988V21.8367L53.1238 14.2988H48.0986L45.5859 16.8114V36.8744L48.0986 39.387H53.1238V24.3493L60.6617 31.8872V39.4251H65.6869L68.1996 36.9125V16.8495L65.6869 14.3369H60.6617V14.2988Z" fill="#3D4146"/>
<path d="M40.5972 14.375H25.5595L23.0469 16.8877V36.9506L25.5595 39.4632H30.5848V29.4127H35.61V39.4632H40.6353L43.1479 36.9506V16.8877L40.5972 14.375ZM33.0974 25.3011L29.8995 22.1032L33.0974 18.9053L36.2953 22.1032L33.0974 25.3011Z" fill="#3D4146"/>
</svg>
