<svg width="122" height="68" viewBox="0 0 122 68" fill="none" xmlns="http://www.w3.org/2000/svg">
<path d="M62.5884 2.33304C51.9082 -1.30145 41.5751 0.642269 39.5192 6.65981C37.4633 12.6907 44.4454 20.5188 55.1256 24.1533C65.8058 27.7877 76.1255 25.844 78.1948 19.8265C80.2507 13.7956 73.2686 5.95421 62.5884 2.33304ZM73.7358 17.0174C72.3741 21.0114 64.8846 22.0764 57.0213 19.4005C49.1581 16.7245 43.8847 11.3194 45.2464 7.32546C46.6082 3.33152 54.0976 2.26647 61.9609 4.94241C69.8376 7.61835 75.0976 13.0235 73.7358 17.0174Z" fill="#3D4146"/>
<path d="M1.71285 56.4378C1.71285 56.4378 4.08919 59.0472 7.97411 59.0472C10.8845 59.0472 13.194 57.2499 13.194 54.4408C13.194 47.7976 1.20554 49.6348 1.20554 42.3259C1.20554 39.2239 3.98239 36.2817 8.24111 36.2817C12.0593 36.2817 14.1953 38.4518 14.1953 38.4518L13.3943 39.6899C13.3943 39.6899 11.3918 37.6796 8.26781 37.6796C4.7834 37.6796 2.71411 40.0227 2.71411 42.286C2.71411 48.4633 14.7026 46.5595 14.7026 54.3743C14.7026 57.7425 12.086 60.4451 7.90735 60.4451C3.28818 60.4451 0.738281 57.5428 0.738281 57.5428L1.71285 56.4378Z" fill="#3D4146"/>
<path d="M17.1836 36.6677H18.7189L25.7811 55.5724C26.1816 56.6774 26.689 58.3814 26.689 58.3814H26.7557C26.7557 58.3814 27.263 56.6774 27.6635 55.5724L34.7658 36.6677H36.3011L27.53 60.0456H25.9547L17.1836 36.6677Z" fill="#3D4146"/>
<path d="M52.8694 51.9645H42.9235L39.9064 60.0456H38.3711L47.1422 36.6677H48.6908L57.4619 60.0456H55.9266L52.8694 51.9645ZM47.8898 38.3452C47.8898 38.3452 47.3825 40.1425 47.022 41.1542L43.4308 50.6332H52.3755L48.8243 41.1542C48.4505 40.1558 47.9566 38.3452 47.9566 38.3452H47.8898Z" fill="#3D4146"/>
<path d="M60.9492 43.3508H62.351V46.293C62.351 47.0652 62.2175 47.6643 62.2175 47.6643H62.2842C62.8583 46.0933 65.1946 42.9514 69.3866 42.9514C73.7387 42.9514 74.9136 45.5209 74.9136 49.4615V60.0455H73.5118V49.9674C73.5118 47.0652 73.138 44.3227 69.3866 44.3227C66.2359 44.3227 63.4591 46.5327 62.618 49.6346C62.4177 50.3402 62.351 51.0991 62.351 51.9112V60.0588H60.9492V43.3508Z" fill="#3D4146"/>
<path d="M86.1022 65.6904C89.68 65.6904 92.4702 63.9863 92.4702 59.9524V58.022C92.4702 57.2498 92.6037 56.6507 92.6037 56.6507H92.537C91.5357 58.6877 89.6934 60.0589 86.9165 60.0589C82.5644 60.0589 79.4805 56.6507 79.4805 51.4453C79.4805 46.2399 82.3241 42.9648 86.6762 42.9648C91.4289 42.9648 92.4969 46.2399 92.4969 46.2399H92.5637C92.5637 46.2399 92.4702 46.0002 92.4702 45.6008V43.3642H93.872V59.9524C93.872 65.0646 90.1874 67.0616 86.209 67.0616C84.3667 67.0616 82.5911 66.5957 80.949 65.7569L81.6165 64.5188C81.6165 64.5188 83.6858 65.6904 86.1022 65.6904ZM92.4969 51.432C92.4969 46.0535 89.947 44.3228 86.6762 44.3228C83.0984 44.3228 80.949 46.9322 80.949 51.432C80.949 55.9451 83.4321 58.6743 87.01 58.6743C89.947 58.6743 92.4969 56.8371 92.4969 51.432Z" fill="#3D4146"/>
<path d="M106.726 42.9514C111.279 42.9514 113.562 46.5193 113.562 50.5665C113.562 50.9393 113.495 51.4718 113.495 51.4718H100.065C100.065 56.3178 103.349 59.0869 107.234 59.0869C110.451 59.0869 112.427 56.9835 112.427 56.9835L113.201 58.155C113.201 58.155 110.852 60.4582 107.247 60.4582C102.521 60.4582 98.6095 57.05 98.6095 51.7381C98.5828 46.0933 102.441 42.9514 106.726 42.9514ZM112.08 50.1671C111.906 46.0933 109.463 44.2561 106.686 44.2561C103.602 44.2561 100.759 46.2664 100.158 50.1671H112.08Z" fill="#3D4146"/>
<path d="M118.113 36.6677H119.515V56.238C119.515 58.5811 120.717 58.8474 121.491 58.8474C121.758 58.8474 121.998 58.8075 121.998 58.8075V60.1122C121.998 60.1122 121.691 60.1787 121.397 60.1787C120.423 60.1787 118.113 59.8059 118.113 56.6774V36.6677Z" fill="#3D4146"/>
</svg>
