<svg width="112" height="66" viewBox="0 0 112 66" fill="none" xmlns="http://www.w3.org/2000/svg">
<path d="M87.7772 40.0186C81.3277 40.0186 76.7901 45.6311 76.1929 51.0057C75.7151 55.5443 77.9835 58.4122 82.9998 58.4122C84.9108 58.4122 86.9407 58.1728 89.0906 57.3368L90.4062 53.1565C88.973 53.7537 86.7023 54.4698 84.7913 54.4698C83.2387 54.4698 82.1647 53.993 81.5675 53.0376C81.2092 52.5598 81.2083 51.7238 81.2083 51.246C88.1356 51.3655 92.7931 49.8128 93.2713 45.2742C93.6296 42.0495 91.3603 40.0186 87.7772 40.0186ZM29.969 40.1375C24.9527 40.1375 21.1322 42.5262 20.6544 46.1093C20.2961 48.2592 21.9687 49.8123 24.1186 50.7678C25.7907 51.6038 26.3864 52.2015 26.267 53.0376C26.1487 53.8736 25.3127 54.4696 23.6406 54.4696C21.7296 54.4696 19.5797 53.753 18.3854 53.1558L17.191 57.3361C18.5048 57.9332 20.1764 58.4115 22.6846 58.4115C27.8204 58.4115 31.8807 56.2602 32.3584 52.1993C32.7168 49.8106 30.6868 48.3774 28.6564 47.4219C27.1037 46.7053 26.3886 46.1091 26.508 45.3924C26.6274 44.437 27.701 43.8388 29.2536 43.8388C30.9257 43.8388 32.4788 44.4369 33.3149 44.7952L34.5104 40.8534C33.555 40.4951 32.24 40.1372 29.9707 40.1372L29.969 40.1375ZM50.1537 40.1375C45.1374 40.1375 40.0012 44.1979 38.3291 49.2142C36.7764 54.2305 39.2845 58.4122 44.3008 58.4122C49.9143 58.4122 54.8131 54.2305 56.3663 49.2142C58.0384 44.1974 55.2914 40.137 50.1556 40.137L50.1537 40.1375ZM70.8173 40.1375C68.7869 40.1375 66.5176 41.3314 64.8455 43.2424H64.7266L65.4427 40.4968H60.7842C60.3065 42.2883 59.4704 45.2733 58.8733 47.3037L53.3797 65.2191V65.338H58.514L60.7837 57.815H60.9027C61.4999 58.1733 62.6957 58.5312 64.1289 58.5312C70.2201 58.5312 74.9966 52.9167 75.7132 46.8255C76.0716 43.2419 74.6393 40.1375 70.8173 40.1375ZM107.602 40.1375C105.214 40.1375 102.944 40.9731 101.033 43.2424H100.914L101.631 40.4968H96.9745C96.6162 42.0494 96.1385 43.959 95.4219 46.2288L91.8388 58.0529V58.1719H96.9755C96.9755 58.1719 98.2888 53.9931 99.4832 50.0517C100.797 45.9908 102.707 44.0799 104.499 44.0799C106.409 44.0799 106.291 45.752 105.574 48.2601C104.977 50.41 102.588 58.0527 102.588 58.0527H107.844L110.949 47.9006C111.188 47.0646 111.427 45.7508 111.546 44.9147C111.905 41.9288 110.47 40.1373 107.604 40.1373L107.602 40.1375ZM14.6812 40.3754C14.6812 40.3754 13.4873 44.4372 12.1735 48.498C10.8597 52.5589 8.94731 54.4698 7.15577 54.4698C5.24479 54.4698 5.36375 52.7977 6.08038 50.2896C6.67756 48.1397 9.06628 40.4968 9.06628 40.4968H3.93197L0.827111 50.6488C0.588239 51.4849 0.349367 52.7987 0.229931 53.6347C-0.128377 56.6206 1.30346 58.4122 4.16988 58.4122C6.5586 58.4122 8.82789 57.5743 10.7389 55.3049H10.8578L10.1412 58.0532H14.7992C15.1575 56.5005 15.6362 54.5886 16.3528 52.3193L19.9359 40.497V40.3757L14.6812 40.3754ZM86.6999 43.8396C87.8943 43.8396 88.4915 44.4381 88.4915 45.2742C88.2526 46.8269 86.2236 47.4226 82.1628 47.4226C82.6405 45.87 84.3112 43.8396 86.6999 43.8396ZM48.9581 43.9585C50.9885 43.9585 51.4663 45.751 51.3469 47.3037C50.9885 50.2896 48.9577 54.4698 46.0912 54.4698C44.2997 54.4698 43.4636 53.1556 43.7025 51.0057C43.9413 48.2587 45.9722 43.9585 48.9581 43.9585ZM68.5456 43.9585C70.2178 43.9585 70.5756 45.3922 70.4561 46.8255C69.9784 50.2891 67.1119 54.4694 64.3649 54.4694C63.4094 54.4694 62.5729 54.2314 62.0951 53.6342L63.2895 49.8109C64.245 46.4667 66.6347 43.9585 68.5456 43.9585Z" fill="#3D4146"/>
<path d="M71.4078 0.258789C60.1808 0.258789 45.6096 4.43905 34.3826 8.61931C49.7899 5.63341 68.902 4.91584 83.4732 5.87133C81.2039 3.1243 77.7379 0.258789 71.4078 0.258789ZM72.9918 7.43427C56.1083 7.67732 39.9378 11.1284 25.1875 17.3393C47.4026 18.6531 64.0042 20.5636 82.9945 24.6245C85.2638 21.9969 86.6966 18.6531 86.6966 14.9506C86.5771 12.323 85.9804 9.81487 84.7861 7.78445C80.8222 7.49333 76.8881 7.37819 72.9918 7.43427ZM52.8023 24.0108C49.1632 24.05 45.582 24.175 42.2677 24.384C64.1245 27.4894 65.5577 29.6397 70.9323 29.6397C75.1126 29.6397 78.6947 28.3254 81.3223 26.1756C75.1415 24.5632 63.7199 23.8933 52.8023 24.0108Z" fill="#3D4146"/>
</svg>
