<svg width="152" height="32" viewBox="0 0 152 32" fill="none" xmlns="http://www.w3.org/2000/svg">
<g clip-path="url(#clip0_7170_186912)">
<path fill-rule="evenodd" clip-rule="evenodd" d="M27.1225 0H3.38776C2.03705 0 0.941406 1.09854 0.941406 2.45282V29.2159C0.941406 30.5701 2.03705 31.6687 3.38776 31.6687H27.1238C28.4745 31.6687 29.5702 30.5701 29.5702 29.2159V17.0425H16.1711V24.7096C16.1711 25.2161 15.7816 25.657 15.2778 25.6721C14.7563 25.6872 14.3279 25.2677 14.3279 24.7487V7.52726C14.3279 7.02084 14.7174 6.57992 15.2212 6.56479C15.7427 6.54968 16.1711 6.96919 16.1711 7.48822V15.1931H29.5702V2.45282C29.5688 1.09854 28.4745 0 27.1225 0ZM118.734 0H92.5534V31.6687H118.734C120.085 31.6687 121.181 30.5701 121.181 29.2159V2.45282C121.181 1.09854 120.085 0 118.734 0ZM107.823 24.7361C107.823 25.2564 107.395 25.6759 106.873 25.6595C106.368 25.6444 105.98 25.2035 105.98 24.697V7.52351C105.98 7.01706 106.37 6.57614 106.873 6.561C107.396 6.5459 107.823 6.96541 107.823 7.48444V24.7361ZM33.9251 0H57.6598C59.0118 0 60.1062 1.09854 60.1062 2.45282V31.6687H46.7097V23.6111H44.8752V31.6687H31.4787V2.45282C31.4787 1.09854 32.5743 0 33.9251 0ZM44.8752 16.0939H46.7184V7.48444C46.7184 6.96541 46.2899 6.5459 45.7686 6.561C45.2647 6.57614 44.8752 7.01706 44.8752 7.52351V16.0939ZM88.1972 0H62.0161V31.6687H75.4327V7.52351C75.4327 7.01706 75.8223 6.57614 76.3261 6.561C76.8474 6.5459 77.2759 6.96541 77.2759 7.48444V31.6687H90.6435V2.45282C90.6435 1.09854 89.5491 0 88.1972 0ZM138.374 15.1415V0H151.72V29.2159C151.72 30.5701 150.624 31.6687 149.273 31.6687H125.537C124.186 31.6687 123.091 30.5701 123.091 29.2159V23.6161H137.454C137.971 23.6161 138.39 23.1878 138.374 22.6637C138.361 22.1825 137.961 21.8071 137.487 21.7718H125.537C124.186 21.7718 123.091 20.6732 123.091 19.319V0H136.531V15.1805C136.531 15.6996 136.96 16.1191 137.481 16.104C137.985 16.0888 138.374 15.6479 138.374 15.1415Z" fill="#3D4146"/>
</g>
<defs>
<clipPath id="clip0_7170_186912">
<rect width="151.057" height="31.6687" fill="white" transform="translate(0.941406)"/>
</clipPath>
</defs>
</svg>
