<svg width="24" height="24" viewBox="0 0 24 24" fill="none" xmlns="http://www.w3.org/2000/svg">
<path fill-rule="evenodd" clip-rule="evenodd" d="M5.88889 20H19.1111C20.1543 20 21 19.1543 21 18.1111V4.88889C21 3.84568 20.1543 3 19.1111 3H5.88889C4.84568 3 4 3.84568 4 4.88889V18.1111C4 19.1543 4.84568 20 5.88889 20Z" fill="white"/>
<path fill-rule="evenodd" clip-rule="evenodd" d="M18.6372 17.6389H16.1145V13.3421C16.1145 12.1641 15.6668 11.5058 14.7344 11.5058C13.72 11.5058 13.1901 12.1909 13.1901 13.3421V17.6389H10.7589V9.45368H13.1901V10.5562C13.1901 10.5562 13.9211 9.20361 15.658 9.20361C17.3942 9.20361 18.6372 10.2638 18.6372 12.4565V17.6389ZM7.85853 8.38189C7.03042 8.38189 6.35938 7.70559 6.35938 6.87149C6.35938 6.03739 7.03042 5.36108 7.85853 5.36108C8.68664 5.36108 9.35728 6.03739 9.35728 6.87149C9.35728 7.70559 8.68664 8.38189 7.85853 8.38189ZM6.60317 17.6389H9.13826V9.45368H6.60317V17.6389Z" fill="black"/>
</svg>
