<svg width="87" height="24" viewBox="0 0 87 24" fill="none" xmlns="http://www.w3.org/2000/svg">
<g clip-path="url(#clip0_3133_66871)">
<path fill-rule="evenodd" clip-rule="evenodd" d="M1.06457 0H8.46647C13.3663 0 15.9726 2.90698 15.9726 7.16604C15.9726 7.70687 15.8336 8.51812 15.7294 9.02515C15.6946 9.22797 15.6599 9.36317 15.6599 9.49838C15.6599 9.7688 15.7641 9.93781 16.1464 10.1406C18.4747 11.4251 19.5172 13.5208 19.5172 16.4954C19.5172 20.6531 16.8762 23.6615 11.455 23.6615H1.06457C0.508553 23.6615 0.300049 23.4248 0.300049 22.884V0.777448C0.300049 0.236615 0.508553 0 1.06457 0ZM6.69414 9.29564H8.46643C9.36995 9.29564 10.065 8.7548 10.065 7.70694C10.065 6.69288 9.36995 6.11824 8.46643 6.11824H6.69414C6.13813 6.11824 5.92963 6.35486 5.92963 6.89569V8.51819C5.92963 9.05902 6.13813 9.29564 6.69414 9.29564ZM6.69414 17.5431H11.3507C12.706 17.5431 13.4705 17.0699 13.4705 15.9544C13.4705 14.8728 12.706 14.3657 11.3507 14.3657H6.69414C6.13813 14.3657 5.92963 14.6023 5.92963 15.1432V16.7657C5.92963 17.3065 6.13813 17.5431 6.69414 17.5431ZM21.67 22.8843V7.53811C21.67 6.99728 21.8785 6.76067 22.4345 6.76067H26.7089C27.2649 6.76067 27.4734 6.99728 27.4734 7.53811V22.8843C27.4734 23.4251 27.2649 23.6617 26.7089 23.6617H22.4345C21.8785 23.6617 21.67 23.4251 21.67 22.8843ZM21.67 4.15765V0.777448C21.67 0.236615 21.8785 0 22.4345 0H26.7089C27.2649 0 27.4734 0.236615 27.4734 0.777448V4.15765C27.4734 4.69849 27.2649 4.9351 26.7089 4.9351H22.4345C21.8785 4.9351 21.67 4.69849 21.67 4.15765ZM32.1656 12.3378H30.1848C29.6288 12.3378 29.3855 12.1349 29.3855 11.5941V7.50406C29.3855 6.96323 29.594 6.76041 30.1848 6.76041H32.1656C32.7216 6.76041 32.9301 6.5238 32.9301 5.98297V0.777448C32.9301 0.236615 33.1386 0 33.6946 0H37.969C38.525 0 38.7335 0.236615 38.7335 0.777448V5.98297C38.7335 6.5238 38.942 6.76041 39.498 6.76041H43.4596C44.0156 6.76041 44.2589 6.96323 44.2589 7.50406V11.5941C44.2589 12.1349 44.0156 12.3378 43.4596 12.3378H39.498C38.942 12.3378 38.7335 12.5744 38.7335 13.1152V22.884C38.7335 23.4248 38.525 23.6615 37.969 23.6615H33.6946C33.1386 23.6615 32.9301 23.4248 32.9301 22.884V13.1152C32.9301 12.5744 32.7216 12.3378 32.1656 12.3378ZM53.0543 24C50.3438 24 47.5637 23.1888 45.5829 22.0057C45.2354 21.8029 45.1659 21.431 45.3744 21.0254L46.9382 18.1522C47.2162 17.6452 47.6332 17.679 48.1197 17.9494C49.5792 18.7945 51.5253 19.4029 53.0196 19.4029C53.9578 19.4029 54.6528 19.1325 54.6528 18.5241C54.6528 17.9494 54.0273 17.7466 53.0891 17.7466H52.3245C48.224 17.7466 45.4091 15.7523 45.4091 12.3045C45.4091 8.45105 48.9537 6.42293 52.8458 6.42293C55.4174 6.42293 57.3287 6.86235 59.379 7.94402C59.7612 8.14683 59.9002 8.51866 59.657 8.92428L57.8847 11.9327C57.6414 12.3721 57.1202 12.4059 56.6684 12.1355C55.2784 11.2904 54.0273 11.0538 52.8806 11.0538C51.838 11.0538 51.3168 11.3918 51.3168 11.8651C51.3168 12.4397 51.838 12.6763 53.3323 12.6763H54.2011C58.1279 12.6763 60.6647 14.5354 60.6647 17.7804C60.6647 21.8029 57.5024 24 53.0543 24ZM73.5989 14.5011L79.2286 22.6812C79.5761 23.1882 79.3676 23.6615 78.7421 23.6615H73.7032C73.1124 23.6615 72.6607 23.5938 72.1742 22.884L69.4636 19.0644C69.1508 18.6249 68.8381 18.6249 68.4558 18.9968L68.1778 19.2672C67.7261 19.7066 67.6913 19.9432 67.6913 20.5517V22.9178C67.6913 23.4248 67.4828 23.6615 66.9268 23.6615H62.6177C62.0964 23.6615 61.8879 23.4248 61.8879 22.9178V0.743646C61.8879 0.236615 62.0964 0 62.6177 0H66.9268C67.4828 0 67.6913 0.236615 67.6913 0.743646V10.58C67.6913 11.1209 68.2126 11.2561 68.5948 10.8167L71.5487 7.57166C72.0352 7.03083 72.5217 6.76041 73.1472 6.76041H78.5683C79.2286 6.76041 79.4023 7.33505 78.9506 7.77448L73.7032 13.2166C73.2862 13.656 73.1819 13.9265 73.5989 14.5011ZM80.893 22.8843V7.53811C80.893 6.99728 81.1015 6.76067 81.6575 6.76067H85.9319C86.4879 6.76067 86.6964 6.99728 86.6964 7.53811V22.8843C86.6964 23.4251 86.4879 23.6617 85.9319 23.6617H81.6575C81.1015 23.6617 80.893 23.4251 80.893 22.8843ZM80.893 4.15765V0.777448C80.893 0.236615 81.1015 0 81.6575 0H85.9319C86.4879 0 86.6964 0.236615 86.6964 0.777448V4.15765C86.6964 4.69849 86.4879 4.9351 85.9319 4.9351H81.6575C81.1015 4.9351 80.893 4.69849 80.893 4.15765Z" fill="black"/>
</g>
<defs>
<clipPath id="clip0_3133_66871">
<rect width="87" height="24" fill="white"/>
</clipPath>
</defs>
</svg>
