<svg width="130" height="32" viewBox="0 0 130 32" fill="none" xmlns="http://www.w3.org/2000/svg">
<g clip-path="url(#clip0_7170_186855)">
<path d="M105.457 13.043V23.2964C105.196 27.3598 99.2215 27.3598 98.9604 23.2964V13.043H93.3096V24.4069C93.3096 28.2448 97.2892 31.3563 102.188 31.3563C107.086 31.3563 111.066 28.2448 111.066 24.4069V13.043H105.457ZM123.833 0.855469V30.6959H129.515V0.855469H123.833ZM114.185 30.6959H119.867V0.855469H114.185V30.6959ZM86.3567 15.1741C87.9307 13.7614 88.838 11.7524 88.8639 9.63914C88.8603 7.73356 88.1259 5.90374 86.8121 4.52402C85.4752 3.03378 83.0562 2.19775 79.8137 2.19775H70.0942V30.6959H82.6489C87.4538 30.6219 91.339 26.9872 91.339 22.5343C91.3318 19.2936 90.1901 16.9771 86.3567 15.1741ZM81.5963 25.7314H76.1594V7.11144H79.9474C81.6489 7.19076 82.9858 8.60435 82.968 10.3076C82.968 11.9752 81.6141 13.3255 79.9474 13.322H77.9759V18.4433H81.5963C86.4743 18.4433 86.4743 25.7555 81.5963 25.7555V25.7314ZM19.9858 10.6347C19.9653 8.38509 19.0509 6.23441 17.4412 4.65682C15.8369 3.08013 13.6666 2.20577 11.4152 2.22717H1.01562V30.6959H7.06214V7.11144H10.1932C12.3163 7.03835 14.0891 8.71933 14.1238 10.8442C14.0302 12.9699 12.2432 14.6322 10.113 14.5644H8.70924V21.3783L14.7255 30.6959H21.8112L13.4554 18.8061C17.2612 17.921 19.9618 14.5412 19.9858 10.6347ZM30.561 12.3059C25.4031 12.4449 21.296 16.6643 21.296 21.8204C21.296 26.981 25.4031 31.1995 30.561 31.3403C34.5255 31.3403 37.6147 29.5461 39.2128 26.7412L34.5923 24.6057C33.9238 25.9578 32.5334 26.7992 31.0298 26.7644C28.9718 26.8544 27.2356 25.2546 27.1589 23.1957V23.0005H39.6851C39.7235 22.6208 39.7404 22.2429 39.7368 21.8587C39.8251 15.6821 35.7554 12.3059 30.561 12.3059ZM27.1384 19.7597C27.0511 17.782 28.6323 16.1322 30.6127 16.1322C32.5896 16.1322 34.1698 17.782 34.0843 19.7597H27.1384ZM62.3337 30.6959V0.855469H56.6446V14.9789C55.133 13.4539 53.075 12.592 50.9279 12.5804C46.2486 12.5804 42.4259 16.7454 42.4259 21.8792C42.4259 27.0113 46.237 31.2173 50.9279 31.2173C53.0973 31.1995 55.1651 30.3082 56.6713 28.752V30.7574L62.3337 30.6959ZM52.5402 26.3357C50.2425 26.3357 48.369 24.292 48.369 21.7714C48.369 19.2517 50.2425 17.1795 52.5402 17.1795C54.8415 17.1795 56.7177 19.2268 56.7177 21.7509C56.7177 24.2786 54.8487 26.3357 52.5402 26.3357Z" fill="#3D4146"/>
</g>
<defs>
<clipPath id="clip0_7170_186855">
<rect width="129.671" height="31.4186" fill="white"/>
</clipPath>
</defs>
</svg>
