<svg width="120" height="46" viewBox="0 0 120 46" fill="none" xmlns="http://www.w3.org/2000/svg">
<g clip-path="url(#clip0_7170_186804)">
<path d="M18.8666 8.62677L11.4945 16.6559L19.4167 27.6568H14.2065L8.59909 19.5207L5.26062 23.1113V27.6568H0.898438V0.154541H5.26062V17.9012L13.3661 8.62677H18.8666Z" fill="#3D4146"/>
<path d="M20.4804 2.75956C20.4608 2.38876 20.5169 2.01783 20.6453 1.6694C20.7737 1.32098 20.9716 1.00237 21.2272 0.732952C21.4827 0.463538 21.7904 0.248977 22.1316 0.102356C22.4727 -0.0442656 22.8402 -0.119873 23.2115 -0.119873C23.5828 -0.119873 23.9503 -0.0442656 24.2914 0.102356C24.6326 0.248977 24.9403 0.463538 25.1958 0.732952C25.4514 1.00237 25.6494 1.32098 25.7778 1.6694C25.9062 2.01783 25.9623 2.38876 25.9426 2.75956C25.9056 3.45893 25.6018 4.11743 25.0936 4.59939C24.5855 5.08134 23.9119 5.35 23.2115 5.35C22.5112 5.35 21.8375 5.08134 21.3294 4.59939C20.8213 4.11743 20.5174 3.45893 20.4804 2.75956ZM21.0304 8.62671H25.3926V27.6568H21.0304V8.62671Z" fill="#3D4146"/>
<path d="M32.3188 11.1556C33.1286 9.6277 35.069 8.18384 38.186 8.18384C42.8079 8.18384 45.2678 11.2396 45.2678 15.7011V27.657H40.9057V16.2512C40.9057 13.6461 39.7292 11.9272 37.1241 11.9272C34.3739 11.9272 32.655 13.6461 32.655 16.6179V27.657H28.2852V8.62692H32.3188V11.1556Z" fill="#3D4146"/>
<path d="M61.9754 0.154541H66.3375V27.6568H62.3038V24.983C61.0892 26.9616 58.8584 28.1381 55.8867 28.1381C50.2716 28.1381 47.0859 23.6231 47.0859 18.2067C47.0859 12.7903 50.2869 8.17604 55.9019 8.17604C57.0853 8.11073 58.2659 8.34538 59.3343 8.85823C60.4028 9.37107 61.3243 10.1455 62.0135 11.1096L61.9754 0.154541ZM56.8034 12.034C53.5031 12.034 51.4557 14.6773 51.4557 18.1456C51.4557 21.6139 53.5108 24.2572 56.8034 24.2572C60.096 24.2572 62.1511 21.5757 62.1511 18.1456C62.1511 14.7155 60.1571 12.034 56.8187 12.034H56.8034Z" fill="#3D4146"/>
<path d="M79.8465 12.5461C79.5171 12.5041 79.1855 12.4811 78.8534 12.4773C75.7976 12.4773 73.9412 14.0893 73.9412 17.7562V27.6876H69.6172V8.62699H73.6509V11.2321C74.346 10.025 75.9427 8.41309 79.2659 8.41309C79.4493 8.41309 79.8847 8.41309 79.8847 8.41309L79.8465 12.5461Z" fill="#3D4146"/>
<path d="M84.5755 19.4062C84.904 22.4162 86.8674 24.3566 89.9232 24.3566C90.8495 24.4012 91.768 24.1665 92.5594 23.6829C93.3508 23.1993 93.9787 22.4892 94.3618 21.6446H98.7621C98.1906 23.556 97.0038 25.225 95.3861 26.3924C93.7683 27.5597 91.8103 28.16 89.8162 28.1C84.056 28.1 80.3203 23.8066 80.3203 18.1228C80.3203 12.5841 84.1401 8.19141 89.778 8.19141C95.416 8.19141 99.1288 12.4848 99.1288 18.054C99.1288 18.7569 99.1288 19.4139 99.1288 19.4139L84.5755 19.4062ZM84.6519 16.1824H94.7743C94.6746 14.9355 94.0948 13.7759 93.1572 12.948C92.2195 12.1201 90.9971 11.6884 89.7475 11.7438C88.4952 11.7058 87.2748 12.1418 86.3301 12.9647C85.3854 13.7876 84.786 14.9367 84.6519 16.1824Z" fill="#3D4146"/>
<path d="M115.64 0.154541H120.041V27.6568H116.007V24.983C114.8 26.9616 112.562 28.1381 109.59 28.1381C103.982 28.1381 100.789 23.6231 100.789 18.2067C100.789 12.7903 103.944 8.17604 109.552 8.17604C110.735 8.11002 111.916 8.34435 112.984 8.85725C114.053 9.37015 114.975 10.145 115.663 11.1096L115.64 0.154541ZM110.468 12.034C107.168 12.034 105.121 14.6773 105.121 18.1456C105.121 21.6139 107.176 24.2572 110.468 24.2572C113.761 24.2572 115.816 21.5757 115.816 18.1456C115.816 14.7155 113.807 12.034 110.468 12.034Z" fill="#3D4146"/>
<path d="M6.11292 38.8794H7.64082L5.04339 45.2278H3.67591L1.09375 38.8794H2.62165L4.35584 43.5013L6.11292 38.8794Z" fill="#3D4146"/>
<path d="M19.4628 42.4778C19.4686 42.7032 19.5194 42.9251 19.6121 43.1307C19.7048 43.3363 19.8375 43.5213 20.0025 43.6749C20.1676 43.8286 20.3616 43.9478 20.5732 44.0256C20.7849 44.1033 21.0099 44.1381 21.2352 44.1279C21.5432 44.144 21.8489 44.0665 22.1121 43.9056C22.3752 43.7447 22.5835 43.508 22.7096 43.2264H24.184C23.9867 43.8601 23.5886 44.4123 23.0497 44.7996C22.5108 45.1869 21.8604 45.3882 21.1969 45.3731C20.533 45.4175 19.8711 45.2615 19.2968 44.9253C18.7225 44.5892 18.2624 44.0884 17.976 43.4878C17.6896 42.8872 17.59 42.2144 17.6903 41.5566C17.7906 40.8988 18.086 40.2862 18.5384 39.7982C18.9907 39.3102 19.5791 38.9692 20.2275 38.8194C20.8758 38.6696 21.5542 38.7179 22.1748 38.9581C22.7953 39.1982 23.3295 39.6191 23.7082 40.1662C24.0868 40.7134 24.2925 41.3616 24.2986 42.027C24.2986 42.2562 24.2986 42.4778 24.2986 42.4778H19.4628ZM19.4628 41.4006H22.8395C22.8043 40.9852 22.6096 40.5996 22.2963 40.3246C21.9829 40.0497 21.5752 39.9069 21.1588 39.9262C20.746 39.9181 20.3452 40.065 20.0355 40.338C19.7257 40.6109 19.5296 40.9901 19.4857 41.4006H19.4628Z" fill="#3D4146"/>
<path d="M36.8595 39.7273C37.0636 39.3989 37.3538 39.1327 37.6986 38.9576C38.0434 38.7825 38.4296 38.7053 38.8152 38.7342C39.1408 38.723 39.465 38.7813 39.7663 38.9053C40.0675 39.0293 40.3389 39.216 40.5623 39.4532C40.7857 39.6903 40.9559 39.9723 41.0617 40.2804C41.1675 40.5885 41.2064 40.9156 41.1758 41.24V45.2278H39.7243V41.408C39.7243 40.5448 39.327 39.9718 38.4638 39.9718C38.2587 39.9544 38.0524 39.9819 37.8591 40.0526C37.6658 40.1232 37.4903 40.2352 37.3448 40.3807C37.1992 40.5262 37.0873 40.7017 37.0166 40.895C36.946 41.0883 36.9185 41.2947 36.9359 41.4997V45.182H35.4844V38.8335H36.8289L36.8595 39.7273Z" fill="#3D4146"/>
<path d="M55.6222 45.1896C55.3717 45.2471 55.1151 45.2727 54.8582 45.266C54.6044 45.3019 54.3457 45.2782 54.1026 45.1967C53.8595 45.1152 53.6388 44.9782 53.4579 44.7966C53.277 44.6149 53.1409 44.3936 53.0604 44.1502C52.9799 43.9068 52.9572 43.648 52.9942 43.3943V40.0482H52.0469V38.8794H53.0095V37.2063H54.4686V38.8564H55.6527V40.0253H54.4686V43.2262C54.4686 43.7228 54.6749 43.9902 55.1791 43.9902C55.3313 43.9893 55.4828 43.9687 55.6298 43.9291L55.6222 45.1896Z" fill="#3D4146"/>
<path d="M70.7964 38.8794H72.2479V45.2278H70.9033V44.4104C70.7009 44.7331 70.4134 44.9938 70.0723 45.1636C69.7313 45.3335 69.35 45.4059 68.9705 45.373C67.4426 45.373 66.6328 44.3646 66.6328 42.8825V38.8794H68.092V42.6992C68.092 43.5701 68.4434 44.143 69.3296 44.143C69.5361 44.1552 69.7427 44.1214 69.9346 44.044C70.1264 43.9666 70.2987 43.8477 70.4391 43.6957C70.5794 43.5437 70.6842 43.3624 70.746 43.165C70.8078 42.9676 70.825 42.7589 70.7964 42.554V38.8794Z" fill="#3D4146"/>
<path d="M87.321 40.1932C87.2115 40.1872 87.1019 40.1872 86.9924 40.1932C85.9611 40.1932 85.3499 40.728 85.3499 41.9503V45.2506H83.8984V38.9021H85.243V39.7883C85.4374 39.4733 85.7151 39.2181 86.0454 39.051C86.3757 38.8838 86.7457 38.8112 87.1147 38.841H87.321V40.1932Z" fill="#3D4146"/>
<path d="M98.959 42.4778C98.9669 42.7025 99.019 42.9235 99.1124 43.1281C99.2058 43.3328 99.3386 43.517 99.5032 43.6702C99.6678 43.8235 99.861 43.9428 100.072 44.0213C100.282 44.0999 100.507 44.1361 100.731 44.1279C101.041 44.1456 101.348 44.0689 101.613 43.9079C101.877 43.7469 102.087 43.5092 102.213 43.2264H103.68C103.483 43.8588 103.086 44.4101 102.549 44.7972C102.012 45.1844 101.363 45.3865 100.701 45.3731C100.037 45.4175 99.375 45.2615 98.8007 44.9253C98.2264 44.5892 97.7663 44.0884 97.4799 43.4878C97.1934 42.8872 97.0939 42.2144 97.1942 41.5566C97.2945 40.8988 97.5899 40.2862 98.0422 39.7982C98.4946 39.3102 99.083 38.9692 99.7314 38.8194C100.38 38.6696 101.058 38.7179 101.679 38.9581C102.299 39.1982 102.833 39.6191 103.212 40.1662C103.591 40.7134 103.796 41.3616 103.802 42.027C103.802 42.2562 103.802 42.4778 103.802 42.4778H98.959ZM98.959 41.4006H102.336C102.302 40.9858 102.109 40.6002 101.797 40.3251C101.485 40.0501 101.078 39.907 100.663 39.9262C100.25 39.9196 99.8487 40.0669 99.5381 40.3394C99.2275 40.6119 99.0293 40.9901 98.982 41.4006H98.959Z" fill="#3D4146"/>
<path d="M114.508 43.1957H115.913C115.913 43.7458 116.395 44.1813 117.289 44.1813C118.053 44.1813 118.457 43.8986 118.457 43.4555C118.457 42.1109 114.813 43.3103 114.813 40.7282C114.813 39.6663 115.768 38.7343 117.334 38.7343C117.637 38.706 117.943 38.7384 118.233 38.8295C118.524 38.9206 118.793 39.0686 119.026 39.2648C119.258 39.4611 119.449 39.7017 119.588 39.9726C119.726 40.2436 119.81 40.5394 119.833 40.8428H118.435C118.42 40.7077 118.379 40.5768 118.314 40.4576C118.249 40.3384 118.162 40.2331 118.056 40.148C117.95 40.0628 117.828 39.9993 117.698 39.9613C117.568 39.9232 117.431 39.9112 117.296 39.926C116.578 39.926 116.211 40.2163 116.211 40.69C116.211 41.9199 119.855 40.8351 119.855 43.402C119.855 44.4792 118.977 45.3807 117.205 45.3807C115.432 45.3807 114.584 44.3646 114.508 43.1957Z" fill="#3D4146"/>
</g>
<defs>
<clipPath id="clip0_7170_186804">
<rect width="119.1" height="45.3711" fill="white" transform="translate(0.898438 0.00952148)"/>
</clipPath>
</defs>
</svg>
