<svg width="197" height="33" viewBox="0 0 197 33" fill="none" xmlns="http://www.w3.org/2000/svg">
<g clip-path="url(#clip0_7170_186915)">
<path d="M93.4333 15.876C96.214 15.0052 96.08 11.8234 96.08 11.8234C96.08 6.76595 90.0831 7.13438 90.0831 7.13438H72.4609V23.9143H78.2903V18.6559C78.2903 18.6559 85.1918 18.6559 88.006 18.6559C90.8201 18.6559 90.8536 21.1344 90.8536 21.1344V23.9143H96.4485C96.4485 23.9143 96.4485 23.4454 96.4485 20.1631C96.4485 16.8808 93.4333 15.876 93.4333 15.876ZM88.7095 14.6033H78.2903V11.7229C78.2903 11.7229 87.9054 11.7229 88.877 11.7564C89.8821 11.7899 90.3846 12.1918 90.3846 13.0961C90.3846 14.7708 88.7095 14.6033 88.7095 14.6033Z" fill="#3D4146"/>
<path d="M97.5195 11.723H106.666V23.9479H112.428V11.723H121.574V7.16797H97.5195V11.723Z" fill="#3D4146"/>
<path d="M172.832 7.16797V11.723H181.978V23.9479H187.741V11.723H196.887V7.16797H172.832Z" fill="#3D4146"/>
<path d="M125.863 7.16797H123.316V23.9479H129.079V18.4216H139.699V14.168H129.079V11.723H145.361V7.16797H125.863Z" fill="#3D4146"/>
<path d="M171.194 7.20146L161.913 7.16797L152.868 12.7948V7.16797H147.105V23.9479H152.868V16.9144L163.019 23.9479H172.266L158.965 14.8043L171.194 7.20146Z" fill="#3D4146"/>
<path d="M40.9062 17.8182C47.5396 21.134 66.9709 31.8852 66.9709 31.8852L55.4796 13.3302C53.838 10.6842 51.3253 8.67466 48.3771 7.63638L34.3732 2.71292C41.0067 10.2823 35.2443 8.77514 33.7702 8.57418C25.1266 7.40193 0 0 0 0L38.1925 23.5455C30.554 13.0287 39.4991 17.1149 40.9062 17.8182Z" fill="#3D4146"/>
</g>
<defs>
<clipPath id="clip0_7170_186915">
<rect width="196.892" height="32.2685" fill="white"/>
</clipPath>
</defs>
</svg>
