<svg width="144" height="39" viewBox="0 0 144 39" fill="none" xmlns="http://www.w3.org/2000/svg">
<path d="M18.3271 0C9.56142 0 5.43548 4.8479 4.20347 10.6048C1.34624 24.088 17.8238 19.7416 16.1671 27.5306C15.7215 29.5941 14.3846 31.8091 11.4016 31.8091C8.46047 31.8091 8.14592 29.7404 8.71736 27.0239L8.99522 25.7545H0.785284L0.287235 28.0791C-1.31176 35.6017 4.00949 37.4667 10.1905 37.4667C18.002 37.4667 23.2604 34.1913 24.9957 26.0052C27.7061 13.2847 11.3439 17.0669 12.9482 9.5443C13.5091 6.91139 15.04 5.66807 17.1632 5.66807C18.4319 5.66807 19.1607 6.07032 19.4805 6.91139C19.816 7.72634 19.7531 8.98533 19.3861 10.7093H27.596L27.7848 9.84729C28.9591 4.29415 26.8358 0 18.3271 0Z" fill="#3D4146"/>
<path d="M51.3074 7.58024L52.7649 0.700195H29.0525L27.5898 7.58024H35.1864L28.9739 36.7564H37.4931L43.7056 7.58024H51.3074Z" fill="#3D4146"/>
<path d="M86.2429 8.72441L86.1328 8.68262L86.3687 8.79755L86.2429 8.72441Z" fill="#3D4146"/>
<path d="M88.5181 0.700195H75.3487L68.8164 31.3913L67.6735 0.700195H57.0362L40.1445 36.7564H48.9574L51.6835 29.9025H60.3443L60.1975 36.7564H67.6735H69.0156H76.1823L79.1915 22.6777H82.94C91.4488 22.6777 95.5065 18.138 96.8854 11.6602C97.8448 7.16754 97.4935 0.700195 88.5181 0.700195ZM60.4806 23.3255H54.2943L60.7061 7.27724H60.8162L60.4806 23.3255ZM89.9861 7.08396L89.7449 7.04216C89.6715 7.02649 89.6086 7.02649 89.53 7.02127C89.4251 7.00037 89.3203 7.01604 89.2207 7.02649C89.0791 7.06828 88.8904 7.16754 88.8117 7.29292C88.7488 7.40785 88.796 7.60113 88.796 7.74218V7.75785L88.8851 7.85711L88.9638 8.03473L89.0476 8.32205L89.1106 8.53101L89.1682 8.75042L89.184 9.03774V9.20491L89.1892 9.3982L89.1787 9.63328L89.1473 9.95717L89.1315 10.2131L89.0791 10.5214L89.0109 10.793L88.8694 11.1065V11.0908C88.8589 11.1065 88.8589 11.1065 88.8589 11.1065C88.8432 11.143 88.7803 11.3415 88.6911 11.4669C88.602 11.5818 88.4343 11.7333 88.4343 11.7333V11.7438L88.2193 11.9162L87.9205 12.1356L87.6164 12.355L87.2966 12.5326L86.9454 12.752L86.5836 12.9505L86.0594 13.2065H86.0646L85.9126 13.3214L85.7238 13.4886L85.6714 13.8125L85.6085 14.0842L85.7238 14.1521L85.8077 14.2409L85.8759 14.2983L86.0646 14.2774L86.1275 14.2043L86.1904 14.3036L86.1747 14.2461L86.2638 14.3558L86.3529 14.361L86.5679 14.3192L86.7252 14.2304L86.851 14.1416H86.9401L87.0764 14.314L87.2075 14.4812L87.1813 14.5177L87.0502 14.4812H86.8405L86.678 14.5386L86.5626 14.5752L86.3896 14.6222L86.3687 14.7058L86.4106 14.7476L86.505 14.8155L86.6675 14.9304L86.7619 14.9775H86.9139L87.2285 15.0036L87.37 14.9775L87.5116 14.9722L87.6531 14.8625L87.8314 14.8887L87.9519 14.9931L87.9467 15.176L87.931 15.1342L87.7632 15.0924L87.5902 15.1342L86.3582 15.2125L86.0803 15.1499L85.8863 15.129L85.8182 15.1028L85.6924 14.9984L85.6557 15.0193L85.5875 14.9513L85.6609 14.8834H85.7658L85.8601 14.8887L85.6924 14.711L85.5246 14.6483L85.3411 14.6013L85.1367 14.6222L85.1052 14.7058H85.058L84.9637 14.5386V14.4028L85.0528 14.3715L85.1734 14.3401V14.2148L85.0633 14.105L84.9899 14.0476L84.8588 14.0633L84.6701 13.9535L84.4604 13.8438L84.366 13.7446L84.3765 13.6767L84.0829 13.6715L83.7316 13.7028L83.2546 13.708L82.8509 13.6401L82.3266 13.6819L81.7761 13.755L81.3148 13.7812L81.0422 13.7864L80.7538 13.8491L80.5494 13.917L80.4498 13.964L80.2453 14.0685L80.0566 14.1155L79.9202 14.0998L79.7315 14.173L79.4851 14.2983L79.3855 14.361L79.1024 14.4707L78.6515 14.6849L78.2636 14.8834L77.9857 14.9304L77.6921 14.9148L78.0644 14.6222L78.6306 14.1834L78.9451 13.9535L78.9504 13.8491L78.6725 13.6767C78.6044 13.6244 78.5257 13.5409 78.4576 13.4834C78.143 13.1804 78.4366 12.8774 78.7407 12.752C78.9661 12.6893 79.1758 12.6632 79.417 12.6423C79.7472 12.6058 80.0775 12.5378 80.4026 12.4438L80.9478 12.2296L81.189 12.0625L81.535 11.7438L81.8548 11.5296L82.2322 11.2057L82.421 11.0751L82.6569 10.8505L82.7565 10.8035L82.9348 10.6781L83.1497 10.4796L83.4433 10.1766C83.501 10.1348 83.5691 10.1034 83.6006 10.0773C83.805 9.91015 84.0305 9.79523 84.2559 9.68552C84.4656 9.56014 84.6753 9.44522 84.906 9.35641C84.9899 9.31461 85.0475 9.2885 85.1104 9.27805C85.1524 9.24148 85.2467 9.17879 85.3254 9.17879L85.446 9.08998L85.6137 9.00117L85.7763 8.88102L85.9126 8.79744L86.1013 8.68251L86.2586 8.58325L86.3477 8.53101L86.4473 8.44743L86.6518 8.28026L86.7776 8.09219L86.8667 7.88846L86.9191 7.70039C86.9716 7.58546 87.0135 7.46009 87.0397 7.35038C87.0712 7.19366 87.0974 7.07351 87.1236 6.94813C87.1918 6.7235 87.2442 6.50409 87.3962 6.31602C87.4696 6.22722 87.5483 6.12796 87.6793 6.05482C87.6846 6.04437 87.6688 6.03393 87.6688 6.03393H87.695C87.758 5.96079 87.8418 5.89288 87.9362 5.86153C88.2298 5.69436 88.6807 5.71526 88.9323 5.92422C89.0319 6.00781 89.0948 6.08094 89.1997 6.1802C89.1997 6.1802 89.357 6.38916 89.3727 6.39961C89.3989 6.40483 89.4723 6.39961 89.5142 6.44662C89.5929 6.51454 89.6086 6.59812 89.6086 6.59812L90.1434 7.07873L89.9861 7.08396Z" fill="#3D4146"/>
<path d="M108.93 0.700195H100.421L92.7461 36.7564H113.57L115.027 29.8973H102.718L108.93 0.700195Z" fill="#3D4146"/>
<path d="M141.752 7.58024L143.204 0.700195H122.291L114.605 36.7564H136.09L137.547 29.8973H124.582L126.328 21.659H137.982L139.445 14.7998H127.796L129.327 7.58024H141.752Z" fill="#3D4146"/>
</svg>
