<svg width="24" height="24" viewBox="0 0 24 24" fill="none" xmlns="http://www.w3.org/2000/svg">
<path d="M19.1572 8.32114C19.1682 8.47982 19.1682 8.6385 19.1682 8.79865C19.1682 13.6784 15.4534 19.3061 8.6607 19.3061V19.3032C6.65411 19.3061 4.68921 18.7314 3 17.6476C3.29177 17.6827 3.58501 17.7003 3.87898 17.701C5.54186 17.7025 7.15722 17.1445 8.46545 16.1171C6.88519 16.0871 5.49945 15.0568 5.01536 13.5526C5.56892 13.6593 6.13931 13.6374 6.68263 13.489C4.95978 13.1409 3.72029 11.6272 3.72029 9.86922C3.72029 9.85313 3.72029 9.83777 3.72029 9.82241C4.23364 10.1083 4.80841 10.267 5.39634 10.2846C3.77367 9.20011 3.27349 7.04143 4.25338 5.35368C6.12834 7.66081 8.8947 9.06337 11.8644 9.21181C11.5667 7.92918 11.9733 6.58512 12.9327 5.68348C14.4201 4.2853 16.7594 4.35697 18.1576 5.84362C18.9846 5.68055 19.7773 5.37708 20.5027 4.9471C20.2271 5.80194 19.6501 6.52808 18.8793 6.98951C19.6113 6.90322 20.3265 6.70724 21 6.40816C20.5042 7.15112 19.8797 7.79828 19.1572 8.32114Z" fill="white"/>
</svg>
