<svg width="113" height="47" viewBox="0 0 113 47" fill="none" xmlns="http://www.w3.org/2000/svg">
<path d="M90.1461 28.8986C83.2622 28.8986 82.0576 24.9411 82.0576 23.9776H87.0483C87.0483 24.5282 87.84 25.2164 88.4939 25.5261C89.0465 25.7203 89.6294 25.8135 90.2149 25.8014C91.5917 25.8014 92.7275 25.4573 92.7275 24.6314C92.7275 23.8055 91.5572 23.4269 90.2837 23.2549C86.8418 22.7387 81.8166 22.1537 81.8166 18.2306C81.8166 14.3075 85.8437 12.6901 90.1461 12.6901C97.0299 12.6901 98.7853 16.4411 98.7853 17.5423H93.588C93.5602 17.2623 93.4599 16.9945 93.2969 16.7651C93.1339 16.5358 92.9139 16.3529 92.6587 16.2346C92.0532 15.9181 91.38 15.7528 90.6968 15.7528C88.8037 15.7528 87.7367 16.1314 87.7367 16.9917C87.7367 17.852 88.7005 18.0585 90.0772 18.2994C93.5191 18.9188 99.1295 19.1253 99.1295 23.4614C99.1295 25.6982 97.2364 28.8986 90.1116 28.8986H90.1461ZM81.7134 15.1334L79.8203 17.0605H79.0287L79.8203 14.7893H78.0305V11.7265H81.6445L81.7134 15.1334ZM76.8947 28.6233H70.5616V13.0342H76.9635L76.8947 28.6233ZM62.1633 28.6233H56.6218L48.2924 13.0686H55.7269L60.5456 22.429L65.0201 13.0686H69.5634L62.1633 28.6233ZM50.2198 22.0848H37.2438C37.2743 22.5719 37.4013 23.048 37.6175 23.4855C37.8336 23.923 38.1346 24.3132 38.5029 24.6334C38.8712 24.9536 39.2994 25.1974 39.7628 25.3507C40.2262 25.5039 40.7154 25.5636 41.202 25.5261C41.8676 25.557 42.5305 25.4223 43.1312 25.134C43.7319 24.8457 44.2517 24.4129 44.6439 23.8743H49.8068C48.1203 27.763 44.816 28.8642 40.376 28.8642C34.5591 28.8642 30.4632 25.7326 30.4632 20.7427C30.4632 15.7528 34.4903 12.6212 40.376 12.6212C41.5939 12.4772 42.8285 12.5889 44.0007 12.9493C45.173 13.3097 46.2571 13.9107 47.1837 14.7141C48.1103 15.5174 48.8589 16.5053 49.3817 17.6145C49.9045 18.7237 50.19 19.9298 50.2198 21.1557C50.2198 21.4998 50.2198 21.8439 50.2198 22.2225V22.0848ZM30.36 28.4513H15.5597V13.0686H22.2026V24.2873H30.36V28.4513ZM0.65625 0.507812L11.4639 46.5525C34.1461 31.9614 55.9334 46.0019 56.8283 46.5525C57.7232 46.0363 79.5105 31.9958 102.193 46.5525L113 0.507812C97.4963 0.507812 66.2283 0.507812 0.65625 0.507812ZM40.2383 15.8905C39.8348 15.8853 39.4346 15.9627 39.0621 16.1179C38.6896 16.2731 38.3528 16.5028 38.0724 16.7928C37.792 17.0829 37.5738 17.4272 37.4313 17.8046C37.2888 18.1821 37.225 18.5847 37.2438 18.9876H43.5081C43.5304 18.5601 43.4597 18.1328 43.3008 17.7352C43.142 17.3377 42.8987 16.9793 42.5878 16.6848C42.277 16.3904 41.9059 16.1669 41.5003 16.0297C41.0946 15.8926 40.6641 15.8451 40.2383 15.8905Z" fill="#3D4146"/>
</svg>
